<?xml version="1.0" encoding="utf-8"?>
<!-- Generator: Adobe Illustrator 21.1.0, SVG Export Plug-In . SVG Version: 6.00 Build 0)  -->
<svg version="1.1" id="Слой_1" xmlns="http://www.w3.org/2000/svg" xmlns:xlink="http://www.w3.org/1999/xlink" x="0px" y="0px"
	 viewBox="0 0 1440 900" style="enable-background:new 0 0 1440 900;" xml:space="preserve">
<style type="text/css">
	.st0{fill:#F4F4F4;}
	.st1{fill:url(#SVGID_1_);}
	.st2{fill:url(#SVGID_2_);}
	.st3{fill:url(#SVGID_3_);}
	.st4{fill:url(#SVGID_4_);}
	.st5{fill:url(#SVGID_5_);}
	.st6{fill:url(#SVGID_6_);}
	.st7{fill:url(#SVGID_7_);}
	.st8{fill:url(#SVGID_8_);}
	.st9{fill:url(#SVGID_9_);}
	.st10{fill:url(#SVGID_10_);}
	.st11{fill:url(#SVGID_11_);}
	.st12{fill:#FBFBFC;}
</style>
<g>
	<path class="st0" d="M1299.1,680.3c25,77,44.7,151.5,56.9,219.7h84V0C1440,0,1429.3,372.5,1299.1,680.3z"/>
	<path class="st0" d="M1440,0H985c107.5,175.7,236.2,440.2,314.1,680.3C1429.3,372.5,1440,0,1440,0z"/>
	<linearGradient id="SVGID_1_" gradientUnits="userSpaceOnUse" x1="985" y1="340.139" x2="1440" y2="340.139">
		<stop  offset="0" style="stop-color:#D8D8D8"/>
		<stop  offset="1" style="stop-color:#F2F2F2"/>
	</linearGradient>
	<path class="st1" d="M1440,0H985c107.5,175.7,236.2,440.2,314.1,680.3C1429.3,372.5,1440,0,1440,0z"/>
	<path class="st0" d="M1171.1,900H1356c-12.1-68.2-31.9-142.7-56.9-219.7C1265.2,760.5,1223.2,836.3,1171.1,900z"/>
	<linearGradient id="SVGID_2_" gradientUnits="userSpaceOnUse" x1="358" y1="790.139" x2="1356" y2="790.139">
		<stop  offset="0" style="stop-color:#E5E5E5"/>
		<stop  offset="1" style="stop-color:#EEEEEE"/>
	</linearGradient>
	<path class="st2" d="M1171.1,900H1356c-12.1-68.2-31.9-142.7-56.9-219.7C1265.2,760.5,1223.2,836.3,1171.1,900z"/>
	<path class="st0" d="M985,0H563l-40.1,175.9C652.3,399.7,797.2,681.8,836,900h335.1C1172,900,985,0,985,0z"/>
	<linearGradient id="SVGID_3_" gradientUnits="userSpaceOnUse" x1="358" y1="450" x2="1356" y2="450">
		<stop  offset="0" style="stop-color:#E5E5E5"/>
		<stop  offset="1" style="stop-color:#EEEEEE"/>
	</linearGradient>
	<path class="st3" d="M985,0H563l-40.1,175.9C652.3,399.7,797.2,681.8,836,900h335.1C1172,900,985,0,985,0z"/>
	<path class="st0" d="M985,0c0,0,187,900,186.1,900c52.1-63.7,94.1-139.5,128.1-219.7C1221.2,440.2,1092.5,175.7,985,0z"/>
	<linearGradient id="SVGID_4_" gradientUnits="userSpaceOnUse" x1="985" y1="450" x2="1440" y2="450">
		<stop  offset="0" style="stop-color:#D8D8D8"/>
		<stop  offset="1" style="stop-color:#F2F2F2"/>
	</linearGradient>
	<path class="st4" d="M985,0c0,0,187,900,186.1,900c52.1-63.7,94.1-139.5,128.1-219.7C1221.2,440.2,1092.5,175.7,985,0z"/>
	<linearGradient id="SVGID_5_" gradientUnits="userSpaceOnUse" x1="358" y1="450" x2="1356" y2="450">
		<stop  offset="0" style="stop-color:#E5E5E5"/>
		<stop  offset="1" style="stop-color:#EEEEEE"/>
	</linearGradient>
	<path class="st5" d="M985,0c0,0,187,900,186.1,900c52.1-63.7,94.1-139.5,128.1-219.7C1221.2,440.2,1092.5,175.7,985,0z"/>
	<path class="st0" d="M358,900h478c-38.8-218.2-183.7-500.3-313.1-724.1L358,900z"/>
	<linearGradient id="SVGID_6_" gradientUnits="userSpaceOnUse" x1="358" y1="537.9634" x2="1356" y2="537.9634">
		<stop  offset="0" style="stop-color:#E5E5E5"/>
		<stop  offset="1" style="stop-color:#EEEEEE"/>
	</linearGradient>
	<path class="st6" d="M358,900h478c-38.8-218.2-183.7-500.3-313.1-724.1L358,900z"/>
	<linearGradient id="SVGID_7_" gradientUnits="userSpaceOnUse" x1="358" y1="537.9634" x2="836" y2="537.9634">
		<stop  offset="0" style="stop-color:#EAEAEA"/>
		<stop  offset="1" style="stop-color:#F7F7F7"/>
	</linearGradient>
	<path class="st7" d="M358,900h478c-38.8-218.2-183.7-500.3-313.1-724.1L358,900z"/>
	<path class="st0" d="M60,0c148,222,258,629,298,900V0H60z"/>
	<linearGradient id="SVGID_8_" gradientUnits="userSpaceOnUse" x1="60" y1="450" x2="563" y2="450">
		<stop  offset="0" style="stop-color:#EAEAEA"/>
		<stop  offset="1" style="stop-color:#F7F7F7"/>
	</linearGradient>
	<path class="st8" d="M60,0c148,222,258,629,298,900V0H60z"/>
	<path class="st0" d="M563,0H418c31.7,51.9,67.7,111.5,104.9,175.9L563,0z"/>
	<linearGradient id="SVGID_9_" gradientUnits="userSpaceOnUse" x1="60" y1="87.9634" x2="563" y2="87.9634">
		<stop  offset="0" style="stop-color:#EAEAEA"/>
		<stop  offset="1" style="stop-color:#F7F7F7"/>
	</linearGradient>
	<path class="st9" d="M563,0H418c31.7,51.9,67.7,111.5,104.9,175.9L563,0z"/>
	<path class="st0" d="M418,0h-60v900l164.9-724.1C485.7,111.5,449.7,51.9,418,0z"/>
	<linearGradient id="SVGID_10_" gradientUnits="userSpaceOnUse" x1="358" y1="450" x2="836" y2="450">
		<stop  offset="0" style="stop-color:#EAEAEA"/>
		<stop  offset="1" style="stop-color:#F7F7F7"/>
	</linearGradient>
	<path class="st10" d="M418,0h-60v900l164.9-724.1C485.7,111.5,449.7,51.9,418,0z"/>
	<linearGradient id="SVGID_11_" gradientUnits="userSpaceOnUse" x1="60" y1="450" x2="563" y2="450">
		<stop  offset="0" style="stop-color:#EAEAEA"/>
		<stop  offset="1" style="stop-color:#F7F7F7"/>
	</linearGradient>
	<path class="st11" d="M418,0h-60v900l164.9-724.1C485.7,111.5,449.7,51.9,418,0z"/>
	<polygon class="st12" points="0,0 0,900 358,900 60,0 	"/>
	<path class="st12" d="M358,900C318,629,208,222,60,0L358,900z"/>
</g>
</svg>
