<svg xmlns:dc="http://purl.org/dc/elements/1.1/" xmlns:cc="http://creativecommons.org/ns#" xmlns:rdf="http://www.w3.org/1999/02/22-rdf-syntax-ns#" xmlns:svg="http://www.w3.org/2000/svg" xmlns="http://www.w3.org/2000/svg" viewBox="0 0 164 260" height="20" width="20" xml:space="preserve" id="svg2" version="1.1"><metadata id="metadata8"><rdf:RDF><cc:Work rdf:about=""><dc:format>image/svg+xml</dc:format><dc:type rdf:resource="http://purl.org/dc/dcmitype/StillImage"/></cc:Work></rdf:RDF></metadata><defs id="defs6"/><g transform="matrix(1.3333333,0,0,-1.3333333,-114,370)" id="g10"><g transform="scale(0.1)" id="g12"><path id="path26" style="fill:#47c4f3;fill-opacity:1;fill-rule:nonzero;stroke:none" d="m 1885.1,2133.87 c 107.64,109.42 174.09,261.22 174,427.18 v 117.13 c 0,73.52 -59.58,133.12 -133.1,133.12 -73.66,0 -133.19,-59.6 -133.19,-133.12 v -117.13 c -0.04,-94.72 -37.45,-178.98 -97.73,-240.52 -60.51,-61.37 -141.92,-98.4 -232.92,-98.44 -91.05,0.04 -172.36,37.07 -232.96,98.44 -60.2,61.54 -97.64,145.8 -97.64,240.52 v 117.13 c 0,73.52 -59.63,133.12 -133.146,133.12 -73.519,0 -133.187,-59.6 -133.187,-133.12 v -117.13 c -0.047,-165.96 66.394,-317.76 173.993,-427.18 77.6,-79.23 177.81,-136.99 289.76,-162.94 V 1690.66 C 1217.03,1664.72 1116.82,1606.91 1039.22,1527.64 931.621,1418.22 865.18,1266.52 865.227,1100.45 V 983.367 c 0,-73.472 59.668,-133.094 133.187,-133.094 73.516,0 133.146,59.622 133.146,133.094 v 117.083 c 0,94.73 37.44,179.09 97.64,240.57 60.6,61.39 141.91,98.4 232.96,98.49 91,-0.09 172.41,-37.1 232.92,-98.49 60.28,-61.48 97.69,-145.84 97.73,-240.57 V 983.367 c 0,-73.472 59.53,-133.094 133.19,-133.094 73.52,0 133.1,59.622 133.1,133.094 v 117.083 c 0.09,166.07 -66.36,317.77 -174,427.19 -77.59,79.27 -177.8,137.08 -289.75,163.02 v 280.27 c 111.95,25.95 212.16,83.71 289.75,162.94"/><path id="path28" style="fill:#47c4f3;fill-opacity:1;fill-rule:nonzero;stroke:none" d="m 1462.16,878.34 c 127.35,0 230.57,103.125 230.57,230.52 0,127.39 -103.22,230.61 -230.57,230.61 -127.35,0 -230.57,-103.22 -230.57,-230.61 0,-127.395 103.22,-230.52 230.57,-230.52"/></g></g></svg>