<svg width="94" height="47" viewBox="0 0 94 47" fill="none" xmlns="http://www.w3.org/2000/svg">
<g clip-path="url(#clip0_12)">
<path d="M83.1601 13.196V24.6867H79.0398V16.6262H75.0725V24.6867H70.9523V13.1952H83.1601V13.196Z" fill="#0E0737"/>
<path fill-rule="evenodd" clip-rule="evenodd" d="M62.4903 25.0976C66.1787 25.0976 68.9177 22.8455 68.9177 19.4314C68.9177 16.1269 66.8969 13.9813 63.5196 13.9813C61.9609 13.9813 60.6748 14.5277 59.7061 15.4704C59.9373 13.5219 61.592 12.0994 63.4138 12.0994C63.8342 12.0994 66.9995 12.0927 66.9995 12.0927L68.7895 8.68167C68.7895 8.68167 64.8155 8.77175 62.9681 8.77175C58.7472 8.845 55.8961 12.6657 55.8961 17.3062C55.8961 22.7123 58.6768 25.0976 62.4903 25.0976ZM62.5127 17.0026C63.8822 17.0026 64.8316 17.8988 64.8316 19.431C64.8316 20.81 63.988 21.9462 62.5127 21.9494C61.1015 21.9494 60.1521 20.8966 60.1521 19.4545C60.1521 17.9219 61.1015 17.0026 62.5127 17.0026Z" fill="#0E0737"/>
<path d="M52.5424 20.8398C52.5424 20.8398 51.5694 21.3983 50.1161 21.5041C48.4454 21.5534 46.9567 20.5026 46.9567 18.6355C46.9567 16.8142 48.2703 15.7704 50.074 15.7704C51.18 15.7704 52.6431 16.5338 52.6431 16.5338C52.6431 16.5338 53.7137 14.5774 54.2682 13.599C53.2527 12.8326 51.9001 12.4123 50.3269 12.4123C46.3565 12.4123 43.2812 14.9902 43.2812 18.6124C43.2812 22.2807 46.1717 24.7988 50.3269 24.7228C51.4884 24.6797 53.0907 24.2735 54.0673 23.6488L52.5424 20.8398Z" fill="#0E0737"/>
<path d="M0 10.2303L5.71551 20.4039V26.6095L0.00668619 36.763L0 10.2303Z" fill="#5B57A2"/>
<path d="M21.9453 16.7019L27.301 13.433L38.2616 13.4228L21.9453 23.3766V16.7019Z" fill="#D90751"/>
<path d="M21.9149 10.1704L21.9452 23.6398L16.2163 20.1344V0L21.9153 10.1704H21.9149Z" fill="#FAB718"/>
<path d="M38.2615 13.4228L27.3004 13.433L21.9149 10.1704L16.2163 0L38.2611 13.4228H38.2615Z" fill="#ED6F26"/>
<path d="M21.9452 36.8194V30.2844L16.2163 26.8456L16.2195 47L21.9452 36.8194Z" fill="#63B22F"/>
<path d="M27.2875 33.5803L5.71512 20.4039L0 10.2303L38.2383 33.567L27.2871 33.5803H27.2875Z" fill="#1487C9"/>
<path d="M16.22 47L21.9449 36.8194L27.2872 33.5803L38.238 33.567L16.22 47Z" fill="#017F36"/>
<path d="M0.00671387 36.763L16.2632 26.846L10.7978 23.5067L5.71554 26.6094L0.00671387 36.763Z" fill="#984995"/>
<path d="M46.958 32.4202C46.8321 32.58 46.6665 32.7006 46.4679 32.7821C46.2641 32.8647 46.046 32.9068 45.826 32.9059C45.6072 32.9088 45.3896 32.8725 45.1838 32.7985C44.9989 32.7317 44.8299 32.6274 44.6874 32.4923C44.5468 32.3569 44.4363 32.1936 44.3633 32.0129C44.2843 31.8149 44.2449 31.6035 44.2473 31.3905C44.2473 31.179 44.2839 30.9832 44.3598 30.7975C44.4325 30.6115 44.5383 30.4521 44.6709 30.3181C44.8034 30.1814 44.9623 30.0772 45.1409 29.9958C45.323 29.9174 45.5216 29.8751 45.7399 29.8751C45.9751 29.8751 46.1934 29.9045 46.392 29.9629C46.5906 30.0216 46.7593 30.1195 46.8982 30.2566L46.6567 30.664C46.5399 30.5585 46.4023 30.4785 46.2528 30.429C46.1106 30.3833 45.962 30.3603 45.8127 30.3608C45.6805 30.3608 45.5546 30.3867 45.4323 30.4356C45.3118 30.484 45.2017 30.5548 45.1079 30.6444C45.012 30.7365 44.9364 30.8475 44.886 30.9702C44.8298 31.0971 44.8034 31.2374 44.8034 31.3936C44.8034 31.5534 44.8329 31.6968 44.8892 31.8206C44.9458 31.9478 45.0217 32.0556 45.1177 32.1464C45.2136 32.2381 45.3261 32.3062 45.4551 32.352C45.5845 32.401 45.7202 32.4237 45.8657 32.4237C46.0443 32.4237 46.2067 32.3877 46.3456 32.3191C46.4832 32.253 46.6068 32.1613 46.7098 32.0489L46.958 32.4202ZM47.6396 32.8373V29.937H48.1627V32.0979L49.8637 29.937H50.3868V32.8377H49.8637V30.6769L48.1627 32.8377H47.6396V32.8373ZM53.8518 32.4202C53.7231 32.5813 53.5543 32.7061 53.3621 32.7821C53.1582 32.8647 52.94 32.9067 52.7199 32.9059C52.5012 32.9088 52.2837 32.8724 52.078 32.7985C51.893 32.7317 51.7238 32.6274 51.5813 32.4923C51.4406 32.3569 51.3302 32.1936 51.2572 32.0129C51.1781 31.8149 51.1387 31.6035 51.1412 31.3905C51.1412 31.179 51.1777 30.9832 51.2536 30.7975C51.3268 30.6115 51.4326 30.4521 51.5647 30.3181C51.6973 30.1814 51.8562 30.0772 52.0347 29.9958C52.2234 29.9131 52.4277 29.8719 52.6337 29.8751C52.8689 29.8751 53.0872 29.9045 53.2858 29.9629C53.4845 30.0216 53.6532 30.1195 53.7924 30.2566L53.5505 30.664C53.4339 30.5585 53.2965 30.4784 53.147 30.429C53.0048 30.3834 52.8563 30.3604 52.7069 30.3608C52.444 30.3617 52.1915 30.4632 52.0017 30.6444C51.9067 30.7372 51.8312 30.848 51.7799 30.9702C51.7236 31.0971 51.6973 31.2374 51.6973 31.3936C51.6973 31.5534 51.7272 31.6968 51.7834 31.8206C51.8397 31.9478 51.9156 32.0556 52.0115 32.1464C52.1075 32.2381 52.2204 32.3062 52.3494 32.352C52.4784 32.3975 52.6141 32.4237 52.7596 32.4237C52.9386 32.4237 53.0975 32.3877 53.2394 32.3191C53.377 32.253 53.5006 32.1613 53.6036 32.0489L53.8518 32.4202ZM54.12 29.937H56.804V30.4521H55.7251V32.8373H55.202V30.4521H54.1232V29.937H54.12Z" fill="#0E0737"/>
<path fill-rule="evenodd" clip-rule="evenodd" d="M59.2467 32.8084C59.4453 32.7465 59.614 32.6517 59.7596 32.5217L59.6007 32.1175C59.5047 32.2024 59.3757 32.2741 59.2203 32.3329C59.0646 32.3916 58.8892 32.4206 58.6972 32.4206C58.4093 32.4206 58.171 32.3458 57.9822 32.1927C57.7938 32.0391 57.6912 31.8245 57.668 31.5503H59.9318C59.955 31.4493 59.9649 31.3353 59.9649 31.2017C59.9649 31.0028 59.9283 30.8238 59.8555 30.6608C59.7878 30.5026 59.6888 30.3596 59.5645 30.2402C59.4384 30.1219 59.2898 30.03 59.1275 29.9699C58.9576 29.9043 58.7768 29.8711 58.5946 29.872C58.3496 29.872 58.1344 29.9143 57.946 29.9927C57.7679 30.0673 57.6068 30.1771 57.4725 30.3154C57.3421 30.453 57.2419 30.6161 57.1783 30.7944C57.1084 30.9843 57.0736 31.1852 57.0756 31.3874C57.0756 31.6157 57.1154 31.8241 57.1881 32.0101C57.2589 32.1904 57.3672 32.3536 57.5059 32.4891C57.6416 32.6223 57.8068 32.7238 58.0023 32.7954C58.2116 32.8693 58.4323 32.9057 58.6544 32.9028C58.8555 32.9015 59.0552 32.8698 59.2467 32.8088V32.8084ZM57.9228 30.5759C58.0849 30.4294 58.3 30.3577 58.5714 30.3577C58.8263 30.3577 59.0316 30.4262 59.1806 30.5633C59.3297 30.7 59.4087 30.8892 59.4221 31.1301H57.6349C57.6603 30.9168 57.7626 30.72 57.9228 30.5762V30.5759Z" fill="#0E0737"/>
<path d="M60.6764 29.937H61.1531L62.285 31.3745L63.3572 29.937H63.8205V32.8377H63.2978V30.7227L62.2783 32.0685H62.2583L61.1995 30.7223V32.8373H60.6764V29.937Z" fill="#0E0737"/>
<path fill-rule="evenodd" clip-rule="evenodd" d="M65.2435 29.9468C65.0847 29.9881 64.9331 30.0528 64.7935 30.1388L64.9323 30.55C65.0515 30.4913 65.1707 30.4423 65.2899 30.4C65.409 30.3573 65.5612 30.3377 65.7433 30.3377C65.8889 30.3377 66.0049 30.3608 66.0942 30.4063C66.1835 30.4486 66.2495 30.514 66.2959 30.5923C66.3424 30.6706 66.3722 30.7682 66.3888 30.8821C66.4053 30.9961 66.412 31.1199 66.412 31.2538C66.3049 31.1796 66.1829 31.1294 66.0545 31.107C65.9302 31.0824 65.8039 31.0692 65.6773 31.0678C65.5215 31.0678 65.376 31.0909 65.2368 31.1297C65.0979 31.1688 64.9788 31.2276 64.8828 31.3059C64.7848 31.3841 64.7057 31.4831 64.6511 31.5958C64.5928 31.719 64.5634 31.8539 64.565 31.9902C64.565 32.2737 64.648 32.4954 64.8132 32.6521C64.9788 32.8084 65.197 32.8863 65.4684 32.8863C65.7135 32.8863 65.9089 32.844 66.0576 32.7594C66.2067 32.6744 66.3258 32.5769 66.412 32.466V32.8409H66.9016V31.0615C66.9016 30.6832 66.819 30.3902 66.6503 30.1846C66.4847 29.9793 66.1901 29.8752 65.7732 29.8752C65.5876 29.8752 65.4122 29.901 65.2435 29.9468ZM66.1178 32.2968C65.9986 32.3814 65.8429 32.4202 65.6509 32.4202C65.4822 32.4202 65.3496 32.3779 65.2572 32.2964C65.1644 32.2118 65.118 32.101 65.118 31.9639C65.118 31.8828 65.1345 31.8143 65.1711 31.7524C65.2077 31.6905 65.2572 31.6416 65.3135 31.6024C65.375 31.5615 65.4433 31.5316 65.5152 31.5143C65.5915 31.4947 65.6674 31.4849 65.7469 31.4849C66.0053 31.4849 66.2267 31.5468 66.4088 31.6772V32.0454C66.323 32.1411 66.2252 32.2255 66.1178 32.2964V32.2968ZM71.519 28.9168C71.6248 28.8682 71.724 28.7867 71.8168 28.6661L71.532 28.2588C71.4593 28.3567 71.3767 28.4248 71.2838 28.4609C71.1855 28.4991 71.0835 28.5275 70.9794 28.5455L70.8803 28.5631C70.7942 28.578 70.7017 28.5944 70.6022 28.6109C70.4427 28.6403 70.2871 28.6884 70.1389 28.7542C69.9037 28.8553 69.7153 28.992 69.573 29.1647C69.4306 29.3374 69.3181 29.5329 69.2418 29.7483C69.1645 29.9665 69.1124 30.1928 69.0864 30.4227C69.0597 30.6577 69.0467 30.8821 69.0467 31.0972C69.0467 31.3745 69.0829 31.6251 69.1557 31.8499C69.2288 32.0752 69.3311 32.2639 69.4668 32.4171C69.6025 32.5737 69.7649 32.6912 69.9568 32.7758C70.1488 32.8604 70.3639 32.9028 70.6054 32.9028C70.8272 32.9028 71.0325 32.8604 71.2178 32.7821C71.3964 32.7068 71.5583 32.5973 71.6945 32.4598C71.8266 32.3258 71.9328 32.166 72.0056 31.987C72.0815 31.8076 72.118 31.6153 72.118 31.4132C72.118 31.1951 72.085 30.9965 72.0221 30.8203C71.9641 30.6522 71.8717 30.498 71.7507 30.3675C71.6294 30.2391 71.4813 30.1388 71.3169 30.0737C71.1357 30.0027 70.9425 29.9673 70.7478 29.9696C70.6219 29.9696 70.4996 29.986 70.3804 30.0185C70.2645 30.0511 70.1532 30.0982 70.0493 30.1587C69.9484 30.2163 69.856 30.2874 69.7747 30.3702C69.6953 30.4521 69.6292 30.5433 69.5828 30.6475H69.5694C69.5796 30.514 69.5962 30.3773 69.6257 30.2371C69.6556 30.0968 69.6984 29.9629 69.7551 29.836C69.8113 29.7091 69.8841 29.5947 69.9733 29.4905C70.0691 29.3854 70.1865 29.302 70.3175 29.2461C70.4616 29.1778 70.614 29.1286 70.771 29.0997L70.8748 29.0809C70.9782 29.0621 71.077 29.0441 71.1714 29.0245C71.2972 28.9986 71.4128 28.9657 71.519 28.9171V28.9168ZM69.6788 31.7035C69.6276 31.5389 69.603 31.3673 69.606 31.1951C69.6282 31.0962 69.6686 31.0023 69.7252 30.9182C69.7814 30.83 69.8542 30.7521 69.9403 30.6832C70.1347 30.5315 70.375 30.4501 70.6219 30.4521C70.9299 30.4521 71.1615 30.5465 71.3236 30.7325C71.486 30.9213 71.5654 31.1559 71.5654 31.4395C71.5654 31.5797 71.5387 31.707 71.4927 31.8241C71.448 31.9396 71.3804 32.045 71.294 32.134C71.2076 32.223 71.1041 32.2939 70.9896 32.3423C70.8705 32.3944 70.7411 32.4206 70.5956 32.4206C70.45 32.4206 70.3175 32.3912 70.1952 32.3325C70.0736 32.2749 69.9662 32.1915 69.8805 32.0881C69.7908 31.9728 69.7225 31.8426 69.6788 31.7035ZM76.1294 29.937H75.6063V32.8377H76.1294V29.937ZM72.8724 29.937H73.3955V30.8073H73.8789C74.107 30.8073 74.2922 30.8367 74.4413 30.8919C74.5904 30.9475 74.7095 31.0224 74.7988 31.1136C74.8881 31.2049 74.951 31.3126 74.9876 31.4328C75.0238 31.5535 75.0438 31.6772 75.0438 31.8076C75.0438 31.9381 75.0238 32.0622 74.9809 32.186C74.9412 32.3098 74.8716 32.4171 74.7788 32.515C74.6863 32.6129 74.5605 32.6912 74.4016 32.75C74.2427 32.8084 74.0507 32.8409 73.8191 32.8409H72.8693V29.937H72.8724ZM73.3955 31.2926V32.3552H73.7762C74.0378 32.3552 74.223 32.3098 74.3288 32.2181C74.435 32.1269 74.4877 31.9968 74.4877 31.8241C74.4877 31.6478 74.4315 31.5147 74.3257 31.423C74.2163 31.3318 74.0342 31.2859 73.7829 31.2859H73.3955V31.2926Z" fill="#0E0737"/>
<path d="M79.5881 32.4202C79.4622 32.58 79.2966 32.7006 79.098 32.7821C78.8942 32.8647 78.6762 32.9067 78.4561 32.9059C78.2373 32.9088 78.0198 32.8725 77.8139 32.7986C77.6289 32.7318 77.4599 32.6275 77.3175 32.4923C77.1769 32.3568 77.0663 32.1935 76.9931 32.0129C76.9143 31.8148 76.8751 31.6035 76.8774 31.3905C76.8774 31.179 76.9136 30.9832 76.9899 30.7975C77.0627 30.6115 77.1685 30.4521 77.301 30.3181C77.4336 30.1814 77.5921 30.0772 77.771 29.9958C77.9596 29.913 78.1639 29.8719 78.37 29.8751C78.6048 29.8751 78.8235 29.9045 79.0221 29.9629C79.2207 30.0216 79.3895 30.1195 79.5283 30.2566L79.2868 30.664C79.17 30.5586 79.0324 30.4785 78.8829 30.429C78.7407 30.3833 78.5922 30.3603 78.4428 30.3608C78.3106 30.3608 78.1848 30.3867 78.0621 30.4356C77.9416 30.484 77.8316 30.5548 77.738 30.6444C77.6428 30.7371 77.5674 30.8479 77.5161 30.9703C77.4599 31.0972 77.4336 31.2374 77.4336 31.3936C77.4336 31.5534 77.4631 31.6968 77.5193 31.8206C77.5755 31.9479 77.6518 32.0556 77.7478 32.1464C77.8438 32.2381 77.9563 32.3062 78.0853 32.3521C78.2147 32.3975 78.3503 32.4237 78.4959 32.4237C78.6744 32.4237 78.8333 32.3877 78.9757 32.3192C79.1133 32.253 79.2369 32.1613 79.3399 32.0489L79.5881 32.4202ZM79.8559 29.937H82.5402V30.4521H81.461V32.8373H80.9383V30.4521H79.8595V29.937H79.8559Z" fill="#0E0737"/>
<path fill-rule="evenodd" clip-rule="evenodd" d="M83.6325 29.9374H83.1094V34.1283H83.6325V32.7042C83.7383 32.7727 83.8641 32.8217 84.0097 32.8542C84.1552 32.8867 84.3074 32.9028 84.4631 32.9028C84.6948 32.9028 84.9032 32.8605 85.092 32.7825C85.2731 32.7054 85.4372 32.5936 85.575 32.4535C85.7107 32.3129 85.8133 32.15 85.8861 31.9577C85.9589 31.7657 85.9954 31.5601 85.9954 31.342C85.9954 31.1265 85.9624 30.928 85.8995 30.7486C85.8402 30.5782 85.748 30.4211 85.6281 30.286C85.5104 30.1543 85.3644 30.0507 85.201 29.9829C85.0223 29.9064 84.8294 29.8686 84.635 29.872C84.4301 29.872 84.2382 29.9112 84.0561 29.9895C83.874 30.0679 83.7316 30.1619 83.6325 30.2794V29.9374ZM83.9967 30.4752C84.1457 30.3969 84.3078 30.3577 84.4832 30.3577C84.6354 30.3577 84.7711 30.3804 84.8938 30.4294C85.013 30.4783 85.1121 30.5469 85.1951 30.6381C85.2777 30.7294 85.3406 30.834 85.3803 30.9573C85.4232 31.0811 85.4433 31.2151 85.4433 31.3615C85.4433 31.5182 85.4165 31.658 85.3705 31.7885C85.3271 31.9121 85.2582 32.0254 85.1683 32.121C85.078 32.2154 84.9686 32.2898 84.8474 32.3391C84.7122 32.3955 84.5668 32.4233 84.4203 32.4206C84.2783 32.4206 84.1457 32.4046 84.0199 32.372C83.8821 32.3347 83.7514 32.2752 83.6329 32.1958V30.7584C83.7253 30.6479 83.848 30.5535 83.9967 30.4752ZM90.0068 29.9371H89.4837V32.8377H90.0068V29.9371ZM86.7467 29.9371H87.2698V30.8073H87.7527C87.9813 30.8073 88.1665 30.8367 88.3156 30.8919C88.4646 30.9476 88.5838 31.0224 88.6731 31.1136C88.7624 31.2049 88.8253 31.3126 88.8615 31.4328C88.898 31.5535 88.9177 31.6772 88.9177 31.8077C88.9177 31.9381 88.898 32.0622 88.8552 32.186C88.8155 32.3098 88.7458 32.4171 88.653 32.515C88.5606 32.6129 88.4347 32.6913 88.2758 32.75C88.1169 32.8084 87.925 32.8409 87.6934 32.8409H86.7435V29.9371H86.7467ZM87.2733 31.2926V32.3552H87.654C87.9152 32.3552 88.1008 32.3098 88.2066 32.2181C88.3124 32.1269 88.3655 31.9968 88.3655 31.8241C88.3655 31.6479 88.3093 31.5147 88.2035 31.423C88.0941 31.3318 87.912 31.286 87.6607 31.286H87.2733V31.2926Z" fill="#0E0737"/>
<path d="M92.5157 31.3353L93.6343 32.8377H92.9924L92.1283 31.6643L91.2512 32.8377H90.6424L91.7542 31.3611L90.7085 29.937H91.3507L92.1483 31.0321L92.9589 29.937H93.5682L92.5157 31.3353ZM46.5709 36.4227H44.9658V38.8408H44.4427V35.9405H47.0936V38.8408H46.5709V36.4227ZM50.0623 36.4552H49.0299L48.9964 36.944C48.9603 37.358 48.9107 37.6905 48.8411 37.9443C48.7715 38.1989 48.6853 38.3943 48.5862 38.531C48.4871 38.6681 48.3711 38.7625 48.2385 38.8083C48.1018 38.8577 47.9572 38.882 47.8118 38.88L47.7721 38.3779C47.8283 38.381 47.8944 38.3681 47.9672 38.3356C48.0403 38.303 48.1131 38.2314 48.1823 38.1241C48.2519 38.0128 48.3148 37.8565 48.3711 37.6544C48.4273 37.4492 48.4639 37.1821 48.4836 36.846L48.5367 35.9433H50.5854V38.8439H50.0623V36.4548V36.4552Z" fill="#0E0737"/>
<path fill-rule="evenodd" clip-rule="evenodd" d="M51.9954 35.9472C51.8263 35.9926 51.6741 36.0576 51.5451 36.1391L51.6843 36.55C51.8035 36.4912 51.9227 36.4423 52.0414 36.4C52.1606 36.3577 52.3132 36.3381 52.4949 36.3381C52.6408 36.3381 52.7565 36.3608 52.8457 36.4062C52.9354 36.4489 53.0015 36.5139 53.0479 36.5923C53.0939 36.6706 53.1238 36.7685 53.1403 36.8821C53.1568 36.9965 53.1635 37.1202 53.1635 37.2538C53.0565 37.1796 52.9345 37.1296 52.806 37.1073C52.6818 37.0827 52.5555 37.0696 52.4288 37.0681C52.2735 37.0681 52.1276 37.0909 51.9887 37.13C51.8495 37.1692 51.7303 37.2279 51.6344 37.3063C51.5364 37.3845 51.4573 37.4835 51.4027 37.5961C51.3445 37.7194 51.3152 37.8543 51.317 37.9905C51.317 38.2737 51.3996 38.4958 51.5651 38.652C51.7303 38.8083 51.949 38.8866 52.2204 38.8866C52.4654 38.8866 52.6605 38.8443 52.8096 38.7594C52.9582 38.6748 53.0774 38.5768 53.1635 38.466V38.8408H53.6536V37.0615C53.6536 36.6835 53.5706 36.3902 53.4019 36.1849C53.2363 35.9793 52.9417 35.8755 52.5248 35.8755C52.3459 35.8757 52.1679 35.8996 51.9954 35.9468V35.9472ZM52.8725 38.2964C52.7537 38.3814 52.598 38.4206 52.406 38.4206C52.2338 38.4206 52.1048 38.3783 52.0123 38.2964C51.9195 38.2118 51.8731 38.101 51.8731 37.9643C51.8731 37.8828 51.8896 37.8143 51.9262 37.7524C51.9624 37.6905 52.0123 37.6415 52.0686 37.6024C52.1248 37.5632 52.194 37.5338 52.2703 37.5142C52.346 37.4948 52.4238 37.4851 52.502 37.4853C52.76 37.4853 52.9818 37.5471 53.1639 37.6772V38.0453C53.078 38.1411 52.98 38.2255 52.8725 38.2964Z" fill="#0E0737"/>
<path d="M54.166 35.9405H56.8503V36.4552H55.7711V38.8408H55.2484V36.4556H54.1696V35.9405H54.166Z" fill="#0E0737"/>
<path fill-rule="evenodd" clip-rule="evenodd" d="M59.2932 38.8114C59.4918 38.7496 59.6606 38.6548 59.8061 38.5247L59.6472 38.1205C59.5512 38.2055 59.4222 38.2772 59.2665 38.336C59.1111 38.3947 58.9357 38.4237 58.7438 38.4237C58.4559 38.4237 58.2175 38.3489 58.0287 38.1957C57.84 38.0426 57.7377 37.8276 57.7145 37.5534H59.9784C60.0012 37.4527 60.0114 37.3384 60.0114 37.2048C60.0114 37.0062 59.9748 36.8269 59.9021 36.6639C59.8343 36.5058 59.7352 36.3628 59.6106 36.2437C59.4848 36.1252 59.3363 36.0332 59.174 35.973C59.0041 35.9074 58.8234 35.8742 58.6411 35.8751C58.3961 35.8751 58.1809 35.9174 57.9926 35.9957C57.8143 36.0702 57.6532 36.18 57.519 36.3185C57.3886 36.4561 57.2883 36.6193 57.2244 36.7975C57.1547 36.9874 57.1199 37.1883 57.1218 37.3905C57.1218 37.6188 57.1615 37.8272 57.2343 38.0132C57.3074 38.1989 57.4164 38.3587 57.552 38.4922C57.6877 38.6258 57.8533 38.7268 58.0488 38.7985C58.2579 38.8726 58.4786 38.909 58.7005 38.9062C58.896 38.9062 59.0946 38.8733 59.2932 38.8114ZM57.9662 36.5758C58.1282 36.4293 58.3434 36.3576 58.6148 36.3576C58.8732 36.3576 59.0749 36.4293 59.224 36.5629C59.3727 36.7 59.4521 36.8887 59.4655 37.13H57.6783C57.7035 36.9166 57.8059 36.7196 57.9662 36.5758ZM60.2662 35.9405H60.9282L61.9374 37.3388L60.8586 38.8408H60.2167L61.3482 37.3384L60.2662 35.9401V35.9405ZM62.0664 35.9405H62.5895V38.8408H62.0664V35.9405ZM64.4593 38.8408L63.3077 37.3384L64.3834 35.9401H63.7344L62.7185 37.3384L63.8107 38.8408H64.4593ZM66.849 38.8114C67.0476 38.7496 67.2163 38.6548 67.3619 38.5247L67.203 38.1205C67.107 38.2055 66.978 38.2772 66.8226 38.336C66.6669 38.3947 66.4915 38.4237 66.2996 38.4237C66.0117 38.4237 65.7733 38.3489 65.5845 38.1957C65.3961 38.0426 65.2935 37.8276 65.2703 37.5534H67.5341C67.5573 37.4527 67.5672 37.3384 67.5672 37.2048C67.5672 37.0062 67.531 36.8269 67.4578 36.6639C67.3901 36.5058 67.2911 36.3629 67.1668 36.2437C67.0408 36.1252 66.8922 36.0331 66.7298 35.973C66.5599 35.9074 66.3791 35.8742 66.1969 35.8751C65.9523 35.8751 65.7371 35.9174 65.5483 35.9957C65.3703 36.0703 65.2093 36.1801 65.0752 36.3185C64.9445 36.4559 64.8442 36.6191 64.7806 36.7975C64.7107 36.9873 64.6759 37.1883 64.678 37.3905C64.678 37.6188 64.7177 37.8272 64.7904 38.0132C64.8632 38.1989 64.9725 38.3587 65.1082 38.4922C65.2439 38.6258 65.4091 38.7268 65.6046 38.7985C65.8138 38.8726 66.0346 38.909 66.2567 38.9062C66.4578 38.9047 66.6575 38.8728 66.849 38.8114ZM65.522 36.5758C65.6844 36.4293 65.8996 36.3576 66.1709 36.3576C66.4258 36.3576 66.6307 36.4293 66.7798 36.5629C66.9288 36.7 67.0083 36.8887 67.0213 37.13H65.2341C65.2593 36.9166 65.3617 36.7196 65.522 36.5758ZM69.6891 34.9661C69.3811 34.9661 69.2124 34.7965 69.186 34.4577H68.6928C68.6928 34.5877 68.716 34.7052 68.7589 34.816C68.8022 34.9269 68.8651 35.0213 68.9477 35.0996C69.0303 35.1779 69.1365 35.2398 69.2588 35.2884C69.3811 35.3374 69.5235 35.3601 69.6855 35.3601C69.8346 35.3601 69.9671 35.3374 70.0863 35.2884C70.2055 35.243 70.3046 35.1779 70.3907 35.0996C70.4733 35.0213 70.5398 34.9269 70.5858 34.816C70.6322 34.7052 70.6554 34.5877 70.6554 34.4577H70.1657C70.1425 34.7965 69.9801 34.9661 69.6891 34.9661ZM68.2755 35.9401V38.8408H68.7986L70.4997 36.68V38.8408H71.0228V35.9401H70.4997L68.7986 38.101V35.9401H68.2755Z" fill="#0E0737"/>
</g>
<defs>
<clipPath id="clip0_12">
<rect width="94" height="47" fill="white"/>
</clipPath>
</defs>
</svg>
