<svg width="218" height="28" viewBox="0 0 218 28" fill="none" xmlns="http://www.w3.org/2000/svg">
<g clip-path="url(#clip0_12)">
<path d="M108.229 13.6543L116.449 2.07407C117.477 0.691355 115.593 0.172836 114.223 0.172836C111.654 0.172836 110.627 0.518515 109.599 2.07407L104.804 8.98765L100.009 2.07407C98.9818 0.691355 97.9544 0.172836 95.3856 0.172836C94.0156 0.172836 92.1319 0.518515 93.1594 2.07407L101.379 13.6543L92.8169 25.7531C91.7894 27.1358 93.6731 27.6543 95.0431 27.6543C97.2694 27.6543 98.8106 27.3086 99.8381 25.9259L104.804 18.4938L109.771 25.9259C110.798 27.3086 112.339 27.6543 114.566 27.6543C115.935 27.6543 117.819 27.1358 116.792 25.7531L108.229 13.6543Z" fill="#273246"/>
<path d="M71.9245 0.172836C70.5545 0.172836 68.842 0.518515 68.157 1.20987C67.4721 2.24691 59.9371 21.0864 59.9371 21.0864C59.9371 21.0864 51.2034 2.07407 50.3472 1.20987C49.6622 0.518515 47.9497 0.172836 46.5797 0.172836C45.0384 0.172836 43.4972 0.691355 43.4972 2.07407V25.9259C43.4972 27.3086 45.0384 27.8272 46.5797 27.8272C48.1209 27.8272 49.6622 27.4815 49.6622 25.9259V10.3704C50.3472 11.9259 51.0321 13.4815 51.8884 14.8642C53.0871 17.2839 56.5121 26.2716 58.2246 27.4815C58.7384 27.8272 59.2521 28 59.7659 28C60.1083 28 60.6221 27.8272 60.9646 27.6543C62.8483 26.7901 65.7596 17.1111 66.6158 14.6914C67.3008 13.3086 67.8146 11.7531 68.4995 10.1975V25.9259C68.4995 27.3086 70.212 27.8272 71.582 27.8272C73.1233 27.8272 74.6645 27.4815 74.6645 25.9259V2.07407C75.007 0.691355 73.4658 0.172836 71.9245 0.172836Z" fill="#273246"/>
<path d="M84.7683 0.172836C83.227 0.172836 81.5145 0.518515 81.5145 1.90123V25.9259C81.5145 27.3086 83.0558 27.8272 84.7683 27.8272C86.3095 27.8272 88.022 27.4815 88.022 25.9259V2.07407C87.8507 0.691355 86.3095 0.172836 84.7683 0.172836Z" fill="#273246"/>
<path d="M186.833 1.90123C186.319 0.518519 184.778 0 183.065 0C181.524 0 179.983 0.518519 179.298 1.90123L169.365 25.9259C168.68 27.4815 170.735 27.8272 172.276 27.8272C173.818 27.8272 175.188 27.6543 175.873 25.9259L177.756 21.2593H188.374L190.258 25.9259C190.943 27.4815 192.313 27.8272 193.854 27.8272C195.395 27.8272 197.45 27.6543 196.765 25.9259L186.833 1.90123ZM179.298 16.7654L181.695 11.0617C182.38 9.50617 182.551 8.81481 182.723 7.4321C183.065 8.98765 183.236 9.67901 183.921 11.0617L186.148 16.7654H179.298Z" fill="#273246"/>
<path d="M215.945 0.345673H197.279C195.738 0.345673 195.224 1.55555 195.224 2.59259C195.224 3.80246 195.566 4.8395 197.279 4.8395H203.444V25.9259C203.444 27.3086 205.156 27.8272 206.698 27.8272C208.239 27.8272 209.951 27.4815 209.951 25.9259V5.01234H216.116C217.829 5.01234 218.171 3.80246 218.171 2.76543C218 1.55555 217.486 0.345673 215.945 0.345673Z" fill="#273246"/>
<path d="M165.598 22.8148H156.008C155.494 22.8148 155.151 22.642 155.151 22.1235V1.90123C155.151 0.518515 153.439 0.172836 151.898 0.172836C150.357 0.172836 148.644 0.518515 148.644 1.90123V24.0247C148.644 26.963 150.87 27.4815 153.439 27.4815H165.426C166.968 27.4815 167.481 26.2716 167.481 25.2346C167.481 24.0247 167.139 22.8148 165.598 22.8148Z" fill="#273246"/>
<path d="M134.944 0.345673H126.382C123.984 0.345673 121.587 0.864191 121.587 3.80246V25.9259C121.587 27.3086 123.128 27.8272 124.84 27.8272C126.553 27.8272 128.094 27.4815 128.094 25.9259V17.2839H134.944C140.767 17.2839 145.048 13.8272 145.048 8.81481C145.219 3.80246 140.767 0.345673 134.944 0.345673ZM134.259 12.6173H128.094V5.7037C128.094 5.18518 128.265 5.01234 128.95 5.01234H134.259C136.999 5.01234 138.369 6.56789 138.369 8.81481C138.54 10.8889 136.999 12.6173 134.259 12.6173Z" fill="#273246"/>
<path d="M3.42498 0.345673C1.54124 0.345673 0 1.90123 0 3.80246V24.0247C0 25.9259 1.54124 27.4815 3.42498 27.4815H23.4611C25.3449 27.4815 26.8861 25.9259 26.8861 24.0247V3.80246C26.8861 1.90123 25.3449 0.345673 23.4611 0.345673C23.4611 0.345673 3.42498 0.345673 3.42498 0.345673Z" fill="url(#paint0_radial_12)"/>
</g>
<defs>
<radialGradient id="paint0_radial_12" cx="0" cy="0" r="1" gradientUnits="userSpaceOnUse" gradientTransform="translate(24.2614 2.83422) scale(23.425 23.6425)">
<stop stop-color="#8D1003"/>
<stop offset="0.9505" stop-color="#E20613"/>
<stop offset="1" stop-color="#E20613"/>
</radialGradient>
<clipPath id="clip0_12">
<rect width="218" height="28" fill="white"/>
</clipPath>
</defs>
</svg>
