<svg width="74" height="30" viewBox="0 0 74 30" fill="none" xmlns="http://www.w3.org/2000/svg">
<path d="M50.596 16.6954L51.3083 16.9114C51.2604 17.1117 51.185 17.2791 51.0823 17.4134C50.9794 17.5478 50.8514 17.6491 50.6983 17.7175C50.5465 17.7858 50.3527 17.8201 50.1171 17.8201C49.8313 17.8201 49.5975 17.7787 49.4157 17.6959C49.2351 17.612 49.079 17.465 48.9474 17.2551C48.8159 17.0452 48.7501 16.7764 48.7501 16.449C48.7501 16.0123 48.8656 15.677 49.0964 15.4431C49.3284 15.208 49.656 15.0905 50.0794 15.0905C50.4107 15.0905 50.6709 15.1576 50.8598 15.292C51.0499 15.4263 51.1911 15.6327 51.2831 15.911L50.5656 16.0711C50.5404 15.9907 50.5142 15.932 50.4866 15.8948C50.4412 15.8324 50.3856 15.7844 50.3198 15.7508C50.254 15.7172 50.1805 15.7004 50.0992 15.7004C49.915 15.7004 49.7739 15.7748 49.6758 15.9235C49.6017 16.0339 49.5646 16.2073 49.5646 16.4435C49.5646 16.7363 49.6088 16.9372 49.6973 17.0463C49.7858 17.1543 49.9102 17.2083 50.0704 17.2083C50.2259 17.2083 50.3431 17.1645 50.4221 17.0769C50.5022 16.9894 50.5602 16.8622 50.596 16.6954ZM51.6025 16.4562C51.6025 16.0255 51.7221 15.6902 51.9612 15.4503C52.2004 15.2104 52.5335 15.0905 52.9605 15.0905C53.3982 15.0905 53.7354 15.2086 53.9722 15.4449C54.209 15.6801 54.3274 16.0099 54.3274 16.4346C54.3274 16.7428 54.2754 16.996 54.1713 17.1939C54.0685 17.3906 53.919 17.5442 53.7229 17.6546C53.5279 17.7637 53.2845 17.8183 52.9927 17.8183C52.6962 17.8183 52.4504 17.7709 52.2555 17.6761C52.0617 17.5813 51.9044 17.4314 51.7837 17.2263C51.6629 17.0212 51.6025 16.7644 51.6025 16.4562ZM52.4151 16.4597C52.4151 16.7261 52.4641 16.9174 52.5622 17.0338C52.6615 17.1501 52.796 17.2083 52.9658 17.2083C53.1405 17.2083 53.2756 17.1513 53.3712 17.0374C53.4669 16.9234 53.5147 16.7188 53.5147 16.4237C53.5147 16.1754 53.4645 15.9943 53.3641 15.8803C53.2648 15.7652 53.1297 15.7076 52.9587 15.7076C52.7948 15.7076 52.6633 15.7658 52.564 15.8821C52.4648 15.9985 52.4151 16.1911 52.4151 16.4597ZM54.7562 15.1354H55.8253L56.2379 16.7405L56.6487 15.1354H57.7143V17.7733H57.0506V15.7616L56.5357 17.7733H55.9348L55.4217 15.7616V17.7733H54.7562V15.1354ZM58.231 15.1354H59.5817C59.876 15.1354 60.096 15.2056 60.2419 15.346C60.389 15.4863 60.4626 15.686 60.4626 15.9452C60.4626 16.2114 60.3825 16.4196 60.2222 16.5695C60.0631 16.7195 59.8197 16.7944 59.492 16.7944H59.0472V17.7733H58.231V15.1354ZM59.0472 16.26H59.2463C59.403 16.26 59.513 16.233 59.5763 16.1791C59.6398 16.1239 59.6714 16.0537 59.6714 15.9685C59.6714 15.8858 59.6439 15.8156 59.5889 15.758C59.534 15.7004 59.4305 15.6716 59.2786 15.6716H59.0472V16.26ZM60.8895 15.1354H61.7021V17.1237H62.9704V17.7733H60.8895V15.1354ZM63.3723 15.1354H64.1867V17.7733H63.3723V15.1354ZM66.3896 17.3378H65.464L65.3366 17.7733H64.506L65.4945 15.1354H66.3807L67.3693 17.7733H66.5188L66.3896 17.3378ZM66.2192 16.7674L65.9286 15.8192L65.6398 16.7674H66.2192ZM67.6364 15.1354H68.3955L69.3856 16.5947V15.1354H70.1517V17.7733H69.3856L68.401 16.3248V17.7733H67.6364V15.1354ZM70.5066 15.1354H72.9772V15.7868H72.1484V17.7733H71.3353V15.7868H70.5066V15.1354Z" fill="#225E63"/>
<path fill-rule="evenodd" clip-rule="evenodd" d="M40.6663 19.4689L43.0636 18.6777L42.2874 16.8669C41.7103 17.6131 41.1418 18.5777 40.6663 19.4689ZM39.8498 11.18L35.1488 0.212585L0.734741 2.25882L10.2688 29.5017L28.6225 23.444C27.4591 21.6868 27.0273 19.598 28.3767 18.577C29.887 17.4343 32.1592 18.7559 33.6188 20.6351C35.0197 18.1699 38.9501 12.477 39.8498 11.18Z" fill="#225E63"/>
<path fill-rule="evenodd" clip-rule="evenodd" d="M34.0797 8.13748C35.5203 8.13748 36.688 6.98397 36.688 5.5612C36.688 4.13835 35.5203 2.98492 34.0797 2.98492C32.6392 2.98492 31.4714 4.13835 31.4714 5.5612C31.4714 6.98397 32.6392 8.13748 34.0797 8.13748ZM31.9457 9.25485H36.2138V20.9256H31.9457V9.25485Z" fill="#FEFEFE"/>
<path fill-rule="evenodd" clip-rule="evenodd" d="M29.8433 12.6603C29.8739 12.6791 29.8986 12.6637 29.8986 12.6269V9.67024C29.8986 9.633 29.8743 9.5879 29.8423 9.57006C29.8423 9.57006 29.2825 9.18797 27.5741 9.08151C27.4829 9.02871 25.9961 9.02093 25.5835 9.08151C19.3763 9.60275 19.1461 14.3055 19.1461 14.5203V15.6627C19.1461 15.8031 19.1461 20.6111 25.5832 21.0374C26.2121 21.0875 27.4444 21.0374 27.5738 21.0374C29.0564 21.0374 30.0838 20.5698 30.0838 20.5698C30.1165 20.556 30.1429 20.5141 30.1429 20.4773V17.709C30.1429 17.6717 30.1194 17.6585 30.0886 17.6782C30.0886 17.6782 29.6278 18.066 27.6016 18.2729C27.0272 18.3406 26.7546 18.3089 26.5476 18.2729C23.6747 17.767 23.538 15.5627 23.538 15.5627C23.534 15.5262 23.5308 15.4663 23.5308 15.4294V14.585C23.5308 14.5479 23.5341 14.4878 23.5391 14.4513C23.5391 14.4513 23.7332 12.0898 26.5477 11.8408H27.6017C28.8449 12.0165 29.8433 12.6603 29.8433 12.6603Z" fill="#FEFEFE"/>
<path fill-rule="evenodd" clip-rule="evenodd" d="M7.30432 20.8799C7.30432 20.917 7.33283 20.9472 7.36824 20.9472H11.5261C11.5614 20.9472 11.59 20.9167 11.59 20.8799V17.4929C11.59 17.4558 11.6185 17.4276 11.6542 17.4297C11.6542 17.4297 18.2909 17.9325 18.2909 13.267C18.2909 9.58558 14.127 9.18164 12.7562 9.24905C12.7286 9.25039 7.36926 9.24905 7.36926 9.24905C7.33354 9.24905 7.30456 9.27954 7.30456 9.31623L7.30432 20.8799ZM11.516 14.8429V11.7913H12.5335C12.5335 11.7913 14.013 11.861 14.1282 12.9151C14.1551 12.9975 14.1486 13.5135 14.128 13.542C13.9374 14.7824 12.652 14.8431 12.652 14.8431L11.516 14.8429Z" fill="#FEFEFE"/>
<path fill-rule="evenodd" clip-rule="evenodd" d="M34.195 26.5607C34.5418 26.5607 34.8076 26.5607 35.2461 26.3569C36.7616 25.5224 41.8625 12.4768 47.2427 8.46428C47.2755 8.43859 47.3194 8.40111 47.3449 8.363C47.3801 8.31012 47.3815 8.25615 47.3815 8.25615C47.3815 8.25615 47.3815 7.98704 46.5839 7.98704C41.7942 7.85025 36.8134 18.3651 34.195 22.5253C34.1623 22.5711 33.9822 22.5253 33.9822 22.5253C33.9822 22.5253 32.2276 20.3578 30.7034 19.5259C30.6716 19.5085 30.4981 19.4532 30.3182 19.4672C30.1977 19.4672 29.4886 19.6166 29.1583 19.9816C28.7678 20.413 28.7759 20.6552 28.7793 21.1802C28.7796 21.2229 28.8059 21.3959 28.8542 21.4844C29.2269 22.1667 30.9292 24.6179 32.324 25.9702C32.5398 26.131 32.8682 26.5607 34.195 26.5607Z" fill="#2BBC5D"/>
<path d="M48.6449 5.76221H52.5582C53.3296 5.76221 53.9518 5.86726 54.4247 6.0772C54.9015 6.28714 55.295 6.58846 55.6051 6.98124C55.9152 7.37394 56.1401 7.83084 56.2797 8.35184C56.4192 8.87285 56.489 9.42497 56.489 10.0082C56.489 10.922 56.3843 11.6316 56.1749 12.1371C55.9695 12.6386 55.6827 13.0606 55.3144 13.4027C54.9461 13.741 54.5507 13.9665 54.1282 14.0792C53.5506 14.2348 53.0273 14.3126 52.5582 14.3126H48.6449V5.76221ZM51.2789 7.6986V12.3704H51.9244C52.4748 12.3704 52.8664 12.3101 53.0989 12.1896C53.3316 12.0651 53.5138 11.8513 53.6455 11.548C53.7774 11.2408 53.8433 10.745 53.8433 10.0607C53.8433 9.15476 53.6959 8.5346 53.4013 8.2002C53.1067 7.8658 52.6183 7.6986 51.936 7.6986H51.2789ZM57.4193 11.4839L59.9254 11.3263C59.9797 11.7347 60.0902 12.0457 60.2569 12.2595C60.5282 12.6056 60.9159 12.7786 61.4199 12.7786C61.7959 12.7786 62.0847 12.6911 62.2863 12.5161C62.4917 12.3373 62.5944 12.1312 62.5944 11.8979C62.5944 11.6763 62.4975 11.478 62.3037 11.3031C62.1098 11.1281 61.6602 10.9628 60.9547 10.8073C59.7995 10.5467 58.9757 10.2007 58.4834 9.76911C57.9872 9.33752 57.7391 8.78728 57.7391 8.11856C57.7391 7.67919 57.8651 7.26504 58.117 6.87619C58.373 6.48349 58.7548 6.17636 59.2626 5.95471C59.7743 5.72921 60.474 5.61646 61.3617 5.61646C62.451 5.61646 63.2805 5.82058 63.8504 6.22884C64.4241 6.63317 64.7653 7.27864 64.8738 8.16516L62.3909 8.31099C62.325 7.92606 62.1854 7.64611 61.9722 7.47113C61.7629 7.29616 61.4722 7.20871 61.1001 7.20871C60.7938 7.20871 60.5632 7.27479 60.4081 7.40694C60.253 7.53533 60.1755 7.69278 60.1755 7.87939C60.1755 8.01548 60.2395 8.13797 60.3674 8.24687C60.4914 8.35962 60.786 8.46459 61.2512 8.56178C62.4025 8.81062 63.2263 9.06339 63.7225 9.32C64.2226 9.57276 64.585 9.88768 64.8098 10.2648C65.0386 10.642 65.1529 11.0639 65.1529 11.5305C65.1529 12.0787 65.0018 12.5842 64.6994 13.0469C64.397 13.5096 63.9745 13.8615 63.4317 14.1026C62.889 14.3398 62.2049 14.4583 61.3792 14.4583C59.9294 14.4583 58.9254 14.1784 58.3671 13.6185C57.8089 13.0586 57.493 12.347 57.4193 11.4839Z" fill="#225E63"/>
<path d="M65.9255 11.4842L68.4316 11.3267C68.4856 11.735 68.5961 12.046 68.7629 12.2598C69.0347 12.6059 69.4225 12.7789 69.9262 12.7789C70.3022 12.7789 70.5912 12.6915 70.7925 12.5165C70.9978 12.3376 71.1004 12.1315 71.1004 11.8982C71.1004 11.6766 71.004 11.4783 70.8098 11.3034C70.6163 11.1284 70.1667 10.9632 69.4609 10.8076C68.3055 10.547 67.4822 10.201 66.9896 9.76942C66.4935 9.33782 66.2454 8.78759 66.2454 8.11887C66.2454 7.6795 66.3713 7.26535 66.6233 6.87657C66.8792 6.4838 67.261 6.17666 67.7689 5.95501C68.2804 5.72951 68.9799 5.61676 69.8682 5.61676C70.957 5.61676 71.7866 5.82089 72.3569 6.22915C72.9303 6.63355 73.2718 7.27894 73.3799 8.16554L70.8975 8.31129C70.8309 7.92637 70.6915 7.64642 70.4784 7.47144C70.2693 7.29646 69.9787 7.20901 69.6066 7.20901C69.3003 7.20901 69.0692 7.27509 68.9141 7.40732C68.759 7.53563 68.6815 7.69309 68.6815 7.8797C68.6815 8.01578 68.7457 8.13827 68.8734 8.24717C68.9979 8.35992 69.2925 8.4649 69.7578 8.56209C70.9085 8.81092 71.7325 9.06369 72.2284 9.3203C72.7289 9.57307 73.0916 9.88798 73.3164 10.2652C73.5452 10.6423 73.6588 11.0642 73.6588 11.5308C73.6588 12.079 73.5076 12.5846 73.2052 13.0473C72.9028 13.51 72.4806 13.8618 71.9378 14.1029C71.3949 14.3401 70.7111 14.4586 69.8854 14.4586C68.4355 14.4586 67.4313 14.1787 66.8734 13.6188C66.3152 13.0589 65.9992 12.3473 65.9255 11.4842Z" fill="#225E63"/>
</svg>
