<svg width="168" height="168" viewBox="0 0 168 168" fill="none" xmlns="http://www.w3.org/2000/svg">
<path d="M168 0H0V168H168V0Z" fill="white"/>
<path d="M3.42857 0H0V3.42857H3.42857V0Z" fill="black"/>
<path d="M3.42857 3.42856H0V6.85713H3.42857V3.42856Z" fill="black"/>
<path d="M3.42857 6.85715H0V10.2857H3.42857V6.85715Z" fill="black"/>
<path d="M3.42857 10.2857H0V13.7143H3.42857V10.2857Z" fill="black"/>
<path d="M3.42857 13.7143H0V17.1429H3.42857V13.7143Z" fill="black"/>
<path d="M3.42857 17.1429H0V20.5714H3.42857V17.1429Z" fill="black"/>
<path d="M3.42857 20.5714H0V24H3.42857V20.5714Z" fill="black"/>
<path d="M3.42857 30.8571H0V34.2857H3.42857V30.8571Z" fill="black"/>
<path d="M3.42857 34.2857H0V37.7143H3.42857V34.2857Z" fill="black"/>
<path d="M3.42857 37.7143H0V41.1429H3.42857V37.7143Z" fill="black"/>
<path d="M3.42857 41.1429H0V44.5714H3.42857V41.1429Z" fill="black"/>
<path d="M3.42857 44.5714H0V48H3.42857V44.5714Z" fill="black"/>
<path d="M3.42857 48H0V51.4286H3.42857V48Z" fill="black"/>
<path d="M3.42857 58.2857H0V61.7143H3.42857V58.2857Z" fill="black"/>
<path d="M3.42857 61.7143H0V65.1429H3.42857V61.7143Z" fill="black"/>
<path d="M3.42857 65.1429H0V68.5714H3.42857V65.1429Z" fill="black"/>
<path d="M3.42857 68.5714H0V72H3.42857V68.5714Z" fill="black"/>
<path d="M3.42857 72H0V75.4286H3.42857V72Z" fill="black"/>
<path d="M3.42857 75.4286H0V78.8571H3.42857V75.4286Z" fill="black"/>
<path d="M3.42857 82.2857H0V85.7143H3.42857V82.2857Z" fill="black"/>
<path d="M3.42857 92.5714H0V96H3.42857V92.5714Z" fill="black"/>
<path d="M3.42857 96H0V99.4286H3.42857V96Z" fill="black"/>
<path d="M3.42857 102.857H0V106.286H3.42857V102.857Z" fill="black"/>
<path d="M3.42857 123.429H0V126.857H3.42857V123.429Z" fill="black"/>
<path d="M3.42857 137.143H0V140.571H3.42857V137.143Z" fill="black"/>
<path d="M3.42857 144H0V147.429H3.42857V144Z" fill="black"/>
<path d="M3.42857 147.429H0V150.857H3.42857V147.429Z" fill="black"/>
<path d="M3.42857 150.857H0V154.286H3.42857V150.857Z" fill="black"/>
<path d="M3.42857 154.286H0V157.714H3.42857V154.286Z" fill="black"/>
<path d="M3.42857 157.714H0V161.143H3.42857V157.714Z" fill="black"/>
<path d="M3.42857 161.143H0V164.571H3.42857V161.143Z" fill="black"/>
<path d="M3.42857 164.571H0V168H3.42857V164.571Z" fill="black"/>
<path d="M6.85716 0H3.42859V3.42857H6.85716V0Z" fill="black"/>
<path d="M6.85716 20.5714H3.42859V24H6.85716V20.5714Z" fill="black"/>
<path d="M6.85716 27.4286H3.42859V30.8571H6.85716V27.4286Z" fill="black"/>
<path d="M6.85716 34.2857H3.42859V37.7143H6.85716V34.2857Z" fill="black"/>
<path d="M6.85716 37.7143H3.42859V41.1429H6.85716V37.7143Z" fill="black"/>
<path d="M6.85716 48H3.42859V51.4286H6.85716V48Z" fill="black"/>
<path d="M6.85716 51.4286H3.42859V54.8572H6.85716V51.4286Z" fill="black"/>
<path d="M6.85716 54.8571H3.42859V58.2857H6.85716V54.8571Z" fill="black"/>
<path d="M6.85716 68.5714H3.42859V72H6.85716V68.5714Z" fill="black"/>
<path d="M6.85716 82.2857H3.42859V85.7143H6.85716V82.2857Z" fill="black"/>
<path d="M6.85716 89.1429H3.42859V92.5714H6.85716V89.1429Z" fill="black"/>
<path d="M6.85716 92.5714H3.42859V96H6.85716V92.5714Z" fill="black"/>
<path d="M6.85716 96H3.42859V99.4286H6.85716V96Z" fill="black"/>
<path d="M6.85716 99.4286H3.42859V102.857H6.85716V99.4286Z" fill="black"/>
<path d="M6.85716 109.714H3.42859V113.143H6.85716V109.714Z" fill="black"/>
<path d="M6.85716 113.143H3.42859V116.571H6.85716V113.143Z" fill="black"/>
<path d="M6.85716 120H3.42859V123.429H6.85716V120Z" fill="black"/>
<path d="M6.85716 126.857H3.42859V130.286H6.85716V126.857Z" fill="black"/>
<path d="M6.85716 130.286H3.42859V133.714H6.85716V130.286Z" fill="black"/>
<path d="M6.85716 133.714H3.42859V137.143H6.85716V133.714Z" fill="black"/>
<path d="M6.85716 137.143H3.42859V140.571H6.85716V137.143Z" fill="black"/>
<path d="M6.85716 144H3.42859V147.429H6.85716V144Z" fill="black"/>
<path d="M6.85716 164.571H3.42859V168H6.85716V164.571Z" fill="black"/>
<path d="M10.2857 0H6.85718V3.42857H10.2857V0Z" fill="black"/>
<path d="M10.2857 6.85715H6.85718V10.2857H10.2857V6.85715Z" fill="black"/>
<path d="M10.2857 10.2857H6.85718V13.7143H10.2857V10.2857Z" fill="black"/>
<path d="M10.2857 13.7143H6.85718V17.1429H10.2857V13.7143Z" fill="black"/>
<path d="M10.2857 20.5714H6.85718V24H10.2857V20.5714Z" fill="black"/>
<path d="M10.2857 34.2857H6.85718V37.7143H10.2857V34.2857Z" fill="black"/>
<path d="M10.2857 37.7143H6.85718V41.1429H10.2857V37.7143Z" fill="black"/>
<path d="M10.2857 41.1429H6.85718V44.5714H10.2857V41.1429Z" fill="black"/>
<path d="M10.2857 54.8571H6.85718V58.2857H10.2857V54.8571Z" fill="black"/>
<path d="M10.2857 61.7143H6.85718V65.1429H10.2857V61.7143Z" fill="black"/>
<path d="M10.2857 68.5714H6.85718V72H10.2857V68.5714Z" fill="black"/>
<path d="M10.2857 75.4286H6.85718V78.8571H10.2857V75.4286Z" fill="black"/>
<path d="M10.2857 78.8571H6.85718V82.2857H10.2857V78.8571Z" fill="black"/>
<path d="M10.2857 82.2857H6.85718V85.7143H10.2857V82.2857Z" fill="black"/>
<path d="M10.2857 89.1429H6.85718V92.5714H10.2857V89.1429Z" fill="black"/>
<path d="M10.2857 92.5714H6.85718V96H10.2857V92.5714Z" fill="black"/>
<path d="M10.2857 99.4286H6.85718V102.857H10.2857V99.4286Z" fill="black"/>
<path d="M10.2857 106.286H6.85718V109.714H10.2857V106.286Z" fill="black"/>
<path d="M10.2857 109.714H6.85718V113.143H10.2857V109.714Z" fill="black"/>
<path d="M10.2857 116.571H6.85718V120H10.2857V116.571Z" fill="black"/>
<path d="M10.2857 120H6.85718V123.429H10.2857V120Z" fill="black"/>
<path d="M10.2857 126.857H6.85718V130.286H10.2857V126.857Z" fill="black"/>
<path d="M10.2857 133.714H6.85718V137.143H10.2857V133.714Z" fill="black"/>
<path d="M10.2857 137.143H6.85718V140.571H10.2857V137.143Z" fill="black"/>
<path d="M10.2857 144H6.85718V147.429H10.2857V144Z" fill="black"/>
<path d="M10.2857 150.857H6.85718V154.286H10.2857V150.857Z" fill="black"/>
<path d="M10.2857 154.286H6.85718V157.714H10.2857V154.286Z" fill="black"/>
<path d="M10.2857 157.714H6.85718V161.143H10.2857V157.714Z" fill="black"/>
<path d="M10.2857 164.571H6.85718V168H10.2857V164.571Z" fill="black"/>
<path d="M13.7143 0H10.2858V3.42857H13.7143V0Z" fill="black"/>
<path d="M13.7143 6.85715H10.2858V10.2857H13.7143V6.85715Z" fill="black"/>
<path d="M13.7143 10.2857H10.2858V13.7143H13.7143V10.2857Z" fill="black"/>
<path d="M13.7143 13.7143H10.2858V17.1429H13.7143V13.7143Z" fill="black"/>
<path d="M13.7143 20.5714H10.2858V24H13.7143V20.5714Z" fill="black"/>
<path d="M13.7143 27.4286H10.2858V30.8571H13.7143V27.4286Z" fill="black"/>
<path d="M13.7143 48H10.2858V51.4286H13.7143V48Z" fill="black"/>
<path d="M13.7143 58.2857H10.2858V61.7143H13.7143V58.2857Z" fill="black"/>
<path d="M13.7143 75.4286H10.2858V78.8571H13.7143V75.4286Z" fill="black"/>
<path d="M13.7143 82.2857H10.2858V85.7143H13.7143V82.2857Z" fill="black"/>
<path d="M13.7143 92.5714H10.2858V96H13.7143V92.5714Z" fill="black"/>
<path d="M13.7143 99.4286H10.2858V102.857H13.7143V99.4286Z" fill="black"/>
<path d="M13.7143 109.714H10.2858V113.143H13.7143V109.714Z" fill="black"/>
<path d="M13.7143 123.429H10.2858V126.857H13.7143V123.429Z" fill="black"/>
<path d="M13.7143 126.857H10.2858V130.286H13.7143V126.857Z" fill="black"/>
<path d="M13.7143 133.714H10.2858V137.143H13.7143V133.714Z" fill="black"/>
<path d="M13.7143 144H10.2858V147.429H13.7143V144Z" fill="black"/>
<path d="M13.7143 150.857H10.2858V154.286H13.7143V150.857Z" fill="black"/>
<path d="M13.7143 154.286H10.2858V157.714H13.7143V154.286Z" fill="black"/>
<path d="M13.7143 157.714H10.2858V161.143H13.7143V157.714Z" fill="black"/>
<path d="M13.7143 164.571H10.2858V168H13.7143V164.571Z" fill="black"/>
<path d="M17.1428 0H13.7142V3.42857H17.1428V0Z" fill="black"/>
<path d="M17.1428 6.85715H13.7142V10.2857H17.1428V6.85715Z" fill="black"/>
<path d="M17.1428 10.2857H13.7142V13.7143H17.1428V10.2857Z" fill="black"/>
<path d="M17.1428 13.7143H13.7142V17.1429H17.1428V13.7143Z" fill="black"/>
<path d="M17.1428 20.5714H13.7142V24H17.1428V20.5714Z" fill="black"/>
<path d="M17.1428 27.4286H13.7142V30.8571H17.1428V27.4286Z" fill="black"/>
<path d="M17.1428 30.8571H13.7142V34.2857H17.1428V30.8571Z" fill="black"/>
<path d="M17.1428 34.2857H13.7142V37.7143H17.1428V34.2857Z" fill="black"/>
<path d="M17.1428 37.7143H13.7142V41.1429H17.1428V37.7143Z" fill="black"/>
<path d="M17.1428 41.1429H13.7142V44.5714H17.1428V41.1429Z" fill="black"/>
<path d="M17.1428 51.4286H13.7142V54.8572H17.1428V51.4286Z" fill="black"/>
<path d="M17.1428 68.5714H13.7142V72H17.1428V68.5714Z" fill="black"/>
<path d="M17.1428 72H13.7142V75.4286H17.1428V72Z" fill="black"/>
<path d="M17.1428 75.4286H13.7142V78.8571H17.1428V75.4286Z" fill="black"/>
<path d="M17.1428 78.8571H13.7142V82.2857H17.1428V78.8571Z" fill="black"/>
<path d="M17.1428 82.2857H13.7142V85.7143H17.1428V82.2857Z" fill="black"/>
<path d="M17.1428 85.7143H13.7142V89.1429H17.1428V85.7143Z" fill="black"/>
<path d="M17.1428 89.1429H13.7142V92.5714H17.1428V89.1429Z" fill="black"/>
<path d="M17.1428 102.857H13.7142V106.286H17.1428V102.857Z" fill="black"/>
<path d="M17.1428 109.714H13.7142V113.143H17.1428V109.714Z" fill="black"/>
<path d="M17.1428 116.571H13.7142V120H17.1428V116.571Z" fill="black"/>
<path d="M17.1428 120H13.7142V123.429H17.1428V120Z" fill="black"/>
<path d="M17.1428 123.429H13.7142V126.857H17.1428V123.429Z" fill="black"/>
<path d="M17.1428 126.857H13.7142V130.286H17.1428V126.857Z" fill="black"/>
<path d="M17.1428 144H13.7142V147.429H17.1428V144Z" fill="black"/>
<path d="M17.1428 150.857H13.7142V154.286H17.1428V150.857Z" fill="black"/>
<path d="M17.1428 154.286H13.7142V157.714H17.1428V154.286Z" fill="black"/>
<path d="M17.1428 157.714H13.7142V161.143H17.1428V157.714Z" fill="black"/>
<path d="M17.1428 164.571H13.7142V168H17.1428V164.571Z" fill="black"/>
<path d="M20.5714 0H17.1428V3.42857H20.5714V0Z" fill="black"/>
<path d="M20.5714 20.5714H17.1428V24H20.5714V20.5714Z" fill="black"/>
<path d="M20.5714 27.4286H17.1428V30.8571H20.5714V27.4286Z" fill="black"/>
<path d="M20.5714 30.8571H17.1428V34.2857H20.5714V30.8571Z" fill="black"/>
<path d="M20.5714 44.5714H17.1428V48H20.5714V44.5714Z" fill="black"/>
<path d="M20.5714 51.4286H17.1428V54.8572H20.5714V51.4286Z" fill="black"/>
<path d="M20.5714 54.8571H17.1428V58.2857H20.5714V54.8571Z" fill="black"/>
<path d="M20.5714 65.1429H17.1428V68.5714H20.5714V65.1429Z" fill="black"/>
<path d="M20.5714 75.4286H17.1428V78.8571H20.5714V75.4286Z" fill="black"/>
<path d="M20.5714 89.1429H17.1428V92.5714H20.5714V89.1429Z" fill="black"/>
<path d="M20.5714 92.5714H17.1428V96H20.5714V92.5714Z" fill="black"/>
<path d="M20.5714 99.4286H17.1428V102.857H20.5714V99.4286Z" fill="black"/>
<path d="M20.5714 102.857H17.1428V106.286H20.5714V102.857Z" fill="black"/>
<path d="M20.5714 113.143H17.1428V116.571H20.5714V113.143Z" fill="black"/>
<path d="M20.5714 120H17.1428V123.429H20.5714V120Z" fill="black"/>
<path d="M20.5714 123.429H17.1428V126.857H20.5714V123.429Z" fill="black"/>
<path d="M20.5714 126.857H17.1428V130.286H20.5714V126.857Z" fill="black"/>
<path d="M20.5714 130.286H17.1428V133.714H20.5714V130.286Z" fill="black"/>
<path d="M20.5714 144H17.1428V147.429H20.5714V144Z" fill="black"/>
<path d="M20.5714 164.571H17.1428V168H20.5714V164.571Z" fill="black"/>
<path d="M24 0H20.5714V3.42857H24V0Z" fill="black"/>
<path d="M24 3.42856H20.5714V6.85713H24V3.42856Z" fill="black"/>
<path d="M24 6.85715H20.5714V10.2857H24V6.85715Z" fill="black"/>
<path d="M24 10.2857H20.5714V13.7143H24V10.2857Z" fill="black"/>
<path d="M24 13.7143H20.5714V17.1429H24V13.7143Z" fill="black"/>
<path d="M24 17.1429H20.5714V20.5714H24V17.1429Z" fill="black"/>
<path d="M24 20.5714H20.5714V24H24V20.5714Z" fill="black"/>
<path d="M24 27.4286H20.5714V30.8571H24V27.4286Z" fill="black"/>
<path d="M24 34.2857H20.5714V37.7143H24V34.2857Z" fill="black"/>
<path d="M24 41.1429H20.5714V44.5714H24V41.1429Z" fill="black"/>
<path d="M24 48H20.5714V51.4286H24V48Z" fill="black"/>
<path d="M24 54.8571H20.5714V58.2857H24V54.8571Z" fill="black"/>
<path d="M24 61.7143H20.5714V65.1429H24V61.7143Z" fill="black"/>
<path d="M24 68.5714H20.5714V72H24V68.5714Z" fill="black"/>
<path d="M24 75.4286H20.5714V78.8571H24V75.4286Z" fill="black"/>
<path d="M24 82.2857H20.5714V85.7143H24V82.2857Z" fill="black"/>
<path d="M24 89.1429H20.5714V92.5714H24V89.1429Z" fill="black"/>
<path d="M24 96H20.5714V99.4286H24V96Z" fill="black"/>
<path d="M24 102.857H20.5714V106.286H24V102.857Z" fill="black"/>
<path d="M24 109.714H20.5714V113.143H24V109.714Z" fill="black"/>
<path d="M24 116.571H20.5714V120H24V116.571Z" fill="black"/>
<path d="M24 123.429H20.5714V126.857H24V123.429Z" fill="black"/>
<path d="M24 130.286H20.5714V133.714H24V130.286Z" fill="black"/>
<path d="M24 137.143H20.5714V140.571H24V137.143Z" fill="black"/>
<path d="M24 144H20.5714V147.429H24V144Z" fill="black"/>
<path d="M24 147.429H20.5714V150.857H24V147.429Z" fill="black"/>
<path d="M24 150.857H20.5714V154.286H24V150.857Z" fill="black"/>
<path d="M24 154.286H20.5714V157.714H24V154.286Z" fill="black"/>
<path d="M24 157.714H20.5714V161.143H24V157.714Z" fill="black"/>
<path d="M24 161.143H20.5714V164.571H24V161.143Z" fill="black"/>
<path d="M24 164.571H20.5714V168H24V164.571Z" fill="black"/>
<path d="M27.4286 30.8571H24V34.2857H27.4286V30.8571Z" fill="black"/>
<path d="M27.4286 41.1429H24V44.5714H27.4286V41.1429Z" fill="black"/>
<path d="M27.4286 44.5714H24V48H27.4286V44.5714Z" fill="black"/>
<path d="M27.4286 54.8571H24V58.2857H27.4286V54.8571Z" fill="black"/>
<path d="M27.4286 75.4286H24V78.8571H27.4286V75.4286Z" fill="black"/>
<path d="M27.4286 89.1429H24V92.5714H27.4286V89.1429Z" fill="black"/>
<path d="M27.4286 102.857H24V106.286H27.4286V102.857Z" fill="black"/>
<path d="M27.4286 106.286H24V109.714H27.4286V106.286Z" fill="black"/>
<path d="M27.4286 109.714H24V113.143H27.4286V109.714Z" fill="black"/>
<path d="M27.4286 113.143H24V116.571H27.4286V113.143Z" fill="black"/>
<path d="M27.4286 116.571H24V120H27.4286V116.571Z" fill="black"/>
<path d="M27.4286 126.857H24V130.286H27.4286V126.857Z" fill="black"/>
<path d="M27.4286 133.714H24V137.143H27.4286V133.714Z" fill="black"/>
<path d="M30.8572 3.42856H27.4286V6.85713H30.8572V3.42856Z" fill="black"/>
<path d="M30.8572 10.2857H27.4286V13.7143H30.8572V10.2857Z" fill="black"/>
<path d="M30.8572 13.7143H27.4286V17.1429H30.8572V13.7143Z" fill="black"/>
<path d="M30.8572 20.5714H27.4286V24H30.8572V20.5714Z" fill="black"/>
<path d="M30.8572 24H27.4286V27.4286H30.8572V24Z" fill="black"/>
<path d="M30.8572 27.4286H27.4286V30.8571H30.8572V27.4286Z" fill="black"/>
<path d="M30.8572 34.2857H27.4286V37.7143H30.8572V34.2857Z" fill="black"/>
<path d="M30.8572 41.1429H27.4286V44.5714H30.8572V41.1429Z" fill="black"/>
<path d="M30.8572 48H27.4286V51.4286H30.8572V48Z" fill="black"/>
<path d="M30.8572 51.4286H27.4286V54.8572H30.8572V51.4286Z" fill="black"/>
<path d="M30.8572 58.2857H27.4286V61.7143H30.8572V58.2857Z" fill="black"/>
<path d="M30.8572 65.1429H27.4286V68.5714H30.8572V65.1429Z" fill="black"/>
<path d="M30.8572 68.5714H27.4286V72H30.8572V68.5714Z" fill="black"/>
<path d="M30.8572 75.4286H27.4286V78.8571H30.8572V75.4286Z" fill="black"/>
<path d="M30.8572 78.8571H27.4286V82.2857H30.8572V78.8571Z" fill="black"/>
<path d="M30.8572 82.2857H27.4286V85.7143H30.8572V82.2857Z" fill="black"/>
<path d="M30.8572 85.7143H27.4286V89.1429H30.8572V85.7143Z" fill="black"/>
<path d="M30.8572 89.1429H27.4286V92.5714H30.8572V89.1429Z" fill="black"/>
<path d="M30.8572 106.286H27.4286V109.714H30.8572V106.286Z" fill="black"/>
<path d="M30.8572 113.143H27.4286V116.571H30.8572V113.143Z" fill="black"/>
<path d="M30.8572 116.571H27.4286V120H30.8572V116.571Z" fill="black"/>
<path d="M30.8572 130.286H27.4286V133.714H30.8572V130.286Z" fill="black"/>
<path d="M30.8572 140.571H27.4286V144H30.8572V140.571Z" fill="black"/>
<path d="M30.8572 147.429H27.4286V150.857H30.8572V147.429Z" fill="black"/>
<path d="M30.8572 150.857H27.4286V154.286H30.8572V150.857Z" fill="black"/>
<path d="M30.8572 154.286H27.4286V157.714H30.8572V154.286Z" fill="black"/>
<path d="M30.8572 161.143H27.4286V164.571H30.8572V161.143Z" fill="black"/>
<path d="M34.2857 3.42856H30.8572V6.85713H34.2857V3.42856Z" fill="black"/>
<path d="M34.2857 6.85715H30.8572V10.2857H34.2857V6.85715Z" fill="black"/>
<path d="M34.2857 10.2857H30.8572V13.7143H34.2857V10.2857Z" fill="black"/>
<path d="M34.2857 13.7143H30.8572V17.1429H34.2857V13.7143Z" fill="black"/>
<path d="M34.2857 17.1429H30.8572V20.5714H34.2857V17.1429Z" fill="black"/>
<path d="M34.2857 24H30.8572V27.4286H34.2857V24Z" fill="black"/>
<path d="M34.2857 30.8571H30.8572V34.2857H34.2857V30.8571Z" fill="black"/>
<path d="M34.2857 34.2857H30.8572V37.7143H34.2857V34.2857Z" fill="black"/>
<path d="M34.2857 51.4286H30.8572V54.8572H34.2857V51.4286Z" fill="black"/>
<path d="M34.2857 58.2857H30.8572V61.7143H34.2857V58.2857Z" fill="black"/>
<path d="M34.2857 61.7143H30.8572V65.1429H34.2857V61.7143Z" fill="black"/>
<path d="M34.2857 72H30.8572V75.4286H34.2857V72Z" fill="black"/>
<path d="M34.2857 82.2857H30.8572V85.7143H34.2857V82.2857Z" fill="black"/>
<path d="M34.2857 89.1429H30.8572V92.5714H34.2857V89.1429Z" fill="black"/>
<path d="M34.2857 92.5714H30.8572V96H34.2857V92.5714Z" fill="black"/>
<path d="M34.2857 96H30.8572V99.4286H34.2857V96Z" fill="black"/>
<path d="M34.2857 99.4286H30.8572V102.857H34.2857V99.4286Z" fill="black"/>
<path d="M34.2857 113.143H30.8572V116.571H34.2857V113.143Z" fill="black"/>
<path d="M34.2857 116.571H30.8572V120H34.2857V116.571Z" fill="black"/>
<path d="M34.2857 123.429H30.8572V126.857H34.2857V123.429Z" fill="black"/>
<path d="M34.2857 140.571H30.8572V144H34.2857V140.571Z" fill="black"/>
<path d="M34.2857 161.143H30.8572V164.571H34.2857V161.143Z" fill="black"/>
<path d="M34.2857 164.571H30.8572V168H34.2857V164.571Z" fill="black"/>
<path d="M37.7143 0H34.2858V3.42857H37.7143V0Z" fill="black"/>
<path d="M37.7143 3.42856H34.2858V6.85713H37.7143V3.42856Z" fill="black"/>
<path d="M37.7143 13.7143H34.2858V17.1429H37.7143V13.7143Z" fill="black"/>
<path d="M37.7143 17.1429H34.2858V20.5714H37.7143V17.1429Z" fill="black"/>
<path d="M37.7143 20.5714H34.2858V24H37.7143V20.5714Z" fill="black"/>
<path d="M37.7143 27.4286H34.2858V30.8571H37.7143V27.4286Z" fill="black"/>
<path d="M37.7143 37.7143H34.2858V41.1429H37.7143V37.7143Z" fill="black"/>
<path d="M37.7143 44.5714H34.2858V48H37.7143V44.5714Z" fill="black"/>
<path d="M37.7143 48H34.2858V51.4286H37.7143V48Z" fill="black"/>
<path d="M37.7143 54.8571H34.2858V58.2857H37.7143V54.8571Z" fill="black"/>
<path d="M37.7143 61.7143H34.2858V65.1429H37.7143V61.7143Z" fill="black"/>
<path d="M37.7143 65.1429H34.2858V68.5714H37.7143V65.1429Z" fill="black"/>
<path d="M37.7143 68.5714H34.2858V72H37.7143V68.5714Z" fill="black"/>
<path d="M37.7143 72H34.2858V75.4286H37.7143V72Z" fill="black"/>
<path d="M37.7143 78.8571H34.2858V82.2857H37.7143V78.8571Z" fill="black"/>
<path d="M37.7143 89.1429H34.2858V92.5714H37.7143V89.1429Z" fill="black"/>
<path d="M37.7143 96H34.2858V99.4286H37.7143V96Z" fill="black"/>
<path d="M37.7143 99.4286H34.2858V102.857H37.7143V99.4286Z" fill="black"/>
<path d="M37.7143 106.286H34.2858V109.714H37.7143V106.286Z" fill="black"/>
<path d="M37.7143 109.714H34.2858V113.143H37.7143V109.714Z" fill="black"/>
<path d="M37.7143 116.571H34.2858V120H37.7143V116.571Z" fill="black"/>
<path d="M37.7143 120H34.2858V123.429H37.7143V120Z" fill="black"/>
<path d="M37.7143 126.857H34.2858V130.286H37.7143V126.857Z" fill="black"/>
<path d="M37.7143 130.286H34.2858V133.714H37.7143V130.286Z" fill="black"/>
<path d="M37.7143 137.143H34.2858V140.571H37.7143V137.143Z" fill="black"/>
<path d="M37.7143 140.571H34.2858V144H37.7143V140.571Z" fill="black"/>
<path d="M37.7143 144H34.2858V147.429H37.7143V144Z" fill="black"/>
<path d="M37.7143 154.286H34.2858V157.714H37.7143V154.286Z" fill="black"/>
<path d="M37.7143 157.714H34.2858V161.143H37.7143V157.714Z" fill="black"/>
<path d="M37.7143 164.571H34.2858V168H37.7143V164.571Z" fill="black"/>
<path d="M41.1428 0H37.7142V3.42857H41.1428V0Z" fill="black"/>
<path d="M41.1428 3.42856H37.7142V6.85713H41.1428V3.42856Z" fill="black"/>
<path d="M41.1428 6.85715H37.7142V10.2857H41.1428V6.85715Z" fill="black"/>
<path d="M41.1428 17.1429H37.7142V20.5714H41.1428V17.1429Z" fill="black"/>
<path d="M41.1428 30.8571H37.7142V34.2857H41.1428V30.8571Z" fill="black"/>
<path d="M41.1428 34.2857H37.7142V37.7143H41.1428V34.2857Z" fill="black"/>
<path d="M41.1428 37.7143H37.7142V41.1429H41.1428V37.7143Z" fill="black"/>
<path d="M41.1428 41.1429H37.7142V44.5714H41.1428V41.1429Z" fill="black"/>
<path d="M41.1428 44.5714H37.7142V48H41.1428V44.5714Z" fill="black"/>
<path d="M41.1428 48H37.7142V51.4286H41.1428V48Z" fill="black"/>
<path d="M41.1428 51.4286H37.7142V54.8572H41.1428V51.4286Z" fill="black"/>
<path d="M41.1428 54.8571H37.7142V58.2857H41.1428V54.8571Z" fill="black"/>
<path d="M41.1428 72H37.7142V75.4286H41.1428V72Z" fill="black"/>
<path d="M41.1428 75.4286H37.7142V78.8571H41.1428V75.4286Z" fill="black"/>
<path d="M41.1428 82.2857H37.7142V85.7143H41.1428V82.2857Z" fill="black"/>
<path d="M41.1428 92.5714H37.7142V96H41.1428V92.5714Z" fill="black"/>
<path d="M41.1428 109.714H37.7142V113.143H41.1428V109.714Z" fill="black"/>
<path d="M41.1428 113.143H37.7142V116.571H41.1428V113.143Z" fill="black"/>
<path d="M41.1428 116.571H37.7142V120H41.1428V116.571Z" fill="black"/>
<path d="M41.1428 123.429H37.7142V126.857H41.1428V123.429Z" fill="black"/>
<path d="M41.1428 126.857H37.7142V130.286H41.1428V126.857Z" fill="black"/>
<path d="M41.1428 140.571H37.7142V144H41.1428V140.571Z" fill="black"/>
<path d="M41.1428 147.429H37.7142V150.857H41.1428V147.429Z" fill="black"/>
<path d="M41.1428 150.857H37.7142V154.286H41.1428V150.857Z" fill="black"/>
<path d="M41.1428 154.286H37.7142V157.714H41.1428V154.286Z" fill="black"/>
<path d="M41.1428 157.714H37.7142V161.143H41.1428V157.714Z" fill="black"/>
<path d="M41.1428 164.571H37.7142V168H41.1428V164.571Z" fill="black"/>
<path d="M44.5714 3.42856H41.1428V6.85713H44.5714V3.42856Z" fill="black"/>
<path d="M44.5714 13.7143H41.1428V17.1429H44.5714V13.7143Z" fill="black"/>
<path d="M44.5714 20.5714H41.1428V24H44.5714V20.5714Z" fill="black"/>
<path d="M44.5714 27.4286H41.1428V30.8571H44.5714V27.4286Z" fill="black"/>
<path d="M44.5714 30.8571H41.1428V34.2857H44.5714V30.8571Z" fill="black"/>
<path d="M44.5714 41.1429H41.1428V44.5714H44.5714V41.1429Z" fill="black"/>
<path d="M44.5714 44.5714H41.1428V48H44.5714V44.5714Z" fill="black"/>
<path d="M44.5714 48H41.1428V51.4286H44.5714V48Z" fill="black"/>
<path d="M44.5714 54.8571H41.1428V58.2857H44.5714V54.8571Z" fill="black"/>
<path d="M44.5714 58.2857H41.1428V61.7143H44.5714V58.2857Z" fill="black"/>
<path d="M44.5714 72H41.1428V75.4286H44.5714V72Z" fill="black"/>
<path d="M44.5714 75.4286H41.1428V78.8571H44.5714V75.4286Z" fill="black"/>
<path d="M44.5714 82.2857H41.1428V85.7143H44.5714V82.2857Z" fill="black"/>
<path d="M44.5714 85.7143H41.1428V89.1429H44.5714V85.7143Z" fill="black"/>
<path d="M44.5714 92.5714H41.1428V96H44.5714V92.5714Z" fill="black"/>
<path d="M44.5714 96H41.1428V99.4286H44.5714V96Z" fill="black"/>
<path d="M44.5714 99.4286H41.1428V102.857H44.5714V99.4286Z" fill="black"/>
<path d="M44.5714 109.714H41.1428V113.143H44.5714V109.714Z" fill="black"/>
<path d="M44.5714 113.143H41.1428V116.571H44.5714V113.143Z" fill="black"/>
<path d="M44.5714 116.571H41.1428V120H44.5714V116.571Z" fill="black"/>
<path d="M44.5714 120H41.1428V123.429H44.5714V120Z" fill="black"/>
<path d="M44.5714 130.286H41.1428V133.714H44.5714V130.286Z" fill="black"/>
<path d="M44.5714 133.714H41.1428V137.143H44.5714V133.714Z" fill="black"/>
<path d="M44.5714 137.143H41.1428V140.571H44.5714V137.143Z" fill="black"/>
<path d="M44.5714 140.571H41.1428V144H44.5714V140.571Z" fill="black"/>
<path d="M44.5714 147.429H41.1428V150.857H44.5714V147.429Z" fill="black"/>
<path d="M44.5714 154.286H41.1428V157.714H44.5714V154.286Z" fill="black"/>
<path d="M44.5714 157.714H41.1428V161.143H44.5714V157.714Z" fill="black"/>
<path d="M44.5714 161.143H41.1428V164.571H44.5714V161.143Z" fill="black"/>
<path d="M44.5714 164.571H41.1428V168H44.5714V164.571Z" fill="black"/>
<path d="M48 3.42856H44.5714V6.85713H48V3.42856Z" fill="black"/>
<path d="M48 17.1429H44.5714V20.5714H48V17.1429Z" fill="black"/>
<path d="M48 24H44.5714V27.4286H48V24Z" fill="black"/>
<path d="M48 27.4286H44.5714V30.8571H48V27.4286Z" fill="black"/>
<path d="M48 30.8571H44.5714V34.2857H48V30.8571Z" fill="black"/>
<path d="M48 37.7143H44.5714V41.1429H48V37.7143Z" fill="black"/>
<path d="M48 44.5714H44.5714V48H48V44.5714Z" fill="black"/>
<path d="M48 48H44.5714V51.4286H48V48Z" fill="black"/>
<path d="M48 58.2857H44.5714V61.7143H48V58.2857Z" fill="black"/>
<path d="M48 65.1429H44.5714V68.5714H48V65.1429Z" fill="black"/>
<path d="M48 75.4286H44.5714V78.8571H48V75.4286Z" fill="black"/>
<path d="M48 78.8571H44.5714V82.2857H48V78.8571Z" fill="black"/>
<path d="M48 96H44.5714V99.4286H48V96Z" fill="black"/>
<path d="M48 106.286H44.5714V109.714H48V106.286Z" fill="black"/>
<path d="M48 120H44.5714V123.429H48V120Z" fill="black"/>
<path d="M48 123.429H44.5714V126.857H48V123.429Z" fill="black"/>
<path d="M48 126.857H44.5714V130.286H48V126.857Z" fill="black"/>
<path d="M48 133.714H44.5714V137.143H48V133.714Z" fill="black"/>
<path d="M48 137.143H44.5714V140.571H48V137.143Z" fill="black"/>
<path d="M48 140.571H44.5714V144H48V140.571Z" fill="black"/>
<path d="M48 150.857H44.5714V154.286H48V150.857Z" fill="black"/>
<path d="M48 154.286H44.5714V157.714H48V154.286Z" fill="black"/>
<path d="M48 161.143H44.5714V164.571H48V161.143Z" fill="black"/>
<path d="M48 164.571H44.5714V168H48V164.571Z" fill="black"/>
<path d="M51.4286 0H48V3.42857H51.4286V0Z" fill="black"/>
<path d="M51.4286 3.42856H48V6.85713H51.4286V3.42856Z" fill="black"/>
<path d="M51.4286 6.85715H48V10.2857H51.4286V6.85715Z" fill="black"/>
<path d="M51.4286 13.7143H48V17.1429H51.4286V13.7143Z" fill="black"/>
<path d="M51.4286 20.5714H48V24H51.4286V20.5714Z" fill="black"/>
<path d="M51.4286 24H48V27.4286H51.4286V24Z" fill="black"/>
<path d="M51.4286 27.4286H48V30.8571H51.4286V27.4286Z" fill="black"/>
<path d="M51.4286 30.8571H48V34.2857H51.4286V30.8571Z" fill="black"/>
<path d="M51.4286 41.1429H48V44.5714H51.4286V41.1429Z" fill="black"/>
<path d="M51.4286 48H48V51.4286H51.4286V48Z" fill="black"/>
<path d="M51.4286 54.8571H48V58.2857H51.4286V54.8571Z" fill="black"/>
<path d="M51.4286 75.4286H48V78.8571H51.4286V75.4286Z" fill="black"/>
<path d="M51.4286 85.7143H48V89.1429H51.4286V85.7143Z" fill="black"/>
<path d="M51.4286 92.5714H48V96H51.4286V92.5714Z" fill="black"/>
<path d="M51.4286 99.4286H48V102.857H51.4286V99.4286Z" fill="black"/>
<path d="M51.4286 113.143H48V116.571H51.4286V113.143Z" fill="black"/>
<path d="M51.4286 120H48V123.429H51.4286V120Z" fill="black"/>
<path d="M51.4286 126.857H48V130.286H51.4286V126.857Z" fill="black"/>
<path d="M51.4286 137.143H48V140.571H51.4286V137.143Z" fill="black"/>
<path d="M51.4286 140.571H48V144H51.4286V140.571Z" fill="black"/>
<path d="M51.4286 161.143H48V164.571H51.4286V161.143Z" fill="black"/>
<path d="M51.4286 164.571H48V168H51.4286V164.571Z" fill="black"/>
<path d="M54.8572 6.85715H51.4286V10.2857H54.8572V6.85715Z" fill="black"/>
<path d="M54.8572 10.2857H51.4286V13.7143H54.8572V10.2857Z" fill="black"/>
<path d="M54.8572 17.1429H51.4286V20.5714H54.8572V17.1429Z" fill="black"/>
<path d="M54.8572 24H51.4286V27.4286H54.8572V24Z" fill="black"/>
<path d="M54.8572 27.4286H51.4286V30.8571H54.8572V27.4286Z" fill="black"/>
<path d="M54.8572 37.7143H51.4286V41.1429H54.8572V37.7143Z" fill="black"/>
<path d="M54.8572 51.4286H51.4286V54.8572H54.8572V51.4286Z" fill="black"/>
<path d="M54.8572 54.8571H51.4286V58.2857H54.8572V54.8571Z" fill="black"/>
<path d="M54.8572 58.2857H51.4286V61.7143H54.8572V58.2857Z" fill="black"/>
<path d="M54.8572 78.8571H51.4286V82.2857H54.8572V78.8571Z" fill="black"/>
<path d="M54.8572 85.7143H51.4286V89.1429H54.8572V85.7143Z" fill="black"/>
<path d="M54.8572 89.1429H51.4286V92.5714H54.8572V89.1429Z" fill="black"/>
<path d="M54.8572 96H51.4286V99.4286H54.8572V96Z" fill="black"/>
<path d="M54.8572 102.857H51.4286V106.286H54.8572V102.857Z" fill="black"/>
<path d="M54.8572 106.286H51.4286V109.714H54.8572V106.286Z" fill="black"/>
<path d="M54.8572 109.714H51.4286V113.143H54.8572V109.714Z" fill="black"/>
<path d="M54.8572 113.143H51.4286V116.571H54.8572V113.143Z" fill="black"/>
<path d="M54.8572 116.571H51.4286V120H54.8572V116.571Z" fill="black"/>
<path d="M54.8572 120H51.4286V123.429H54.8572V120Z" fill="black"/>
<path d="M54.8572 126.857H51.4286V130.286H54.8572V126.857Z" fill="black"/>
<path d="M54.8572 130.286H51.4286V133.714H54.8572V130.286Z" fill="black"/>
<path d="M54.8572 133.714H51.4286V137.143H54.8572V133.714Z" fill="black"/>
<path d="M54.8572 137.143H51.4286V140.571H54.8572V137.143Z" fill="black"/>
<path d="M54.8572 147.429H51.4286V150.857H54.8572V147.429Z" fill="black"/>
<path d="M54.8572 157.714H51.4286V161.143H54.8572V157.714Z" fill="black"/>
<path d="M54.8572 161.143H51.4286V164.571H54.8572V161.143Z" fill="black"/>
<path d="M58.2857 0H54.8572V3.42857H58.2857V0Z" fill="black"/>
<path d="M58.2857 6.85715H54.8572V10.2857H58.2857V6.85715Z" fill="black"/>
<path d="M58.2857 10.2857H54.8572V13.7143H58.2857V10.2857Z" fill="black"/>
<path d="M58.2857 13.7143H54.8572V17.1429H58.2857V13.7143Z" fill="black"/>
<path d="M58.2857 17.1429H54.8572V20.5714H58.2857V17.1429Z" fill="black"/>
<path d="M58.2857 20.5714H54.8572V24H58.2857V20.5714Z" fill="black"/>
<path d="M58.2857 24H54.8572V27.4286H58.2857V24Z" fill="black"/>
<path d="M58.2857 30.8571H54.8572V34.2857H58.2857V30.8571Z" fill="black"/>
<path d="M58.2857 34.2857H54.8572V37.7143H58.2857V34.2857Z" fill="black"/>
<path d="M58.2857 37.7143H54.8572V41.1429H58.2857V37.7143Z" fill="black"/>
<path d="M58.2857 41.1429H54.8572V44.5714H58.2857V41.1429Z" fill="black"/>
<path d="M58.2857 51.4286H54.8572V54.8572H58.2857V51.4286Z" fill="black"/>
<path d="M58.2857 65.1429H54.8572V68.5714H58.2857V65.1429Z" fill="black"/>
<path d="M58.2857 72H54.8572V75.4286H58.2857V72Z" fill="black"/>
<path d="M58.2857 75.4286H54.8572V78.8571H58.2857V75.4286Z" fill="black"/>
<path d="M58.2857 82.2857H54.8572V85.7143H58.2857V82.2857Z" fill="black"/>
<path d="M58.2857 96H54.8572V99.4286H58.2857V96Z" fill="black"/>
<path d="M58.2857 109.714H54.8572V113.143H58.2857V109.714Z" fill="black"/>
<path d="M58.2857 123.429H54.8572V126.857H58.2857V123.429Z" fill="black"/>
<path d="M58.2857 126.857H54.8572V130.286H58.2857V126.857Z" fill="black"/>
<path d="M58.2857 140.571H54.8572V144H58.2857V140.571Z" fill="black"/>
<path d="M58.2857 144H54.8572V147.429H58.2857V144Z" fill="black"/>
<path d="M58.2857 147.429H54.8572V150.857H58.2857V147.429Z" fill="black"/>
<path d="M58.2857 157.714H54.8572V161.143H58.2857V157.714Z" fill="black"/>
<path d="M58.2857 161.143H54.8572V164.571H58.2857V161.143Z" fill="black"/>
<path d="M61.7143 0H58.2858V3.42857H61.7143V0Z" fill="black"/>
<path d="M61.7143 3.42856H58.2858V6.85713H61.7143V3.42856Z" fill="black"/>
<path d="M61.7143 10.2857H58.2858V13.7143H61.7143V10.2857Z" fill="black"/>
<path d="M61.7143 13.7143H58.2858V17.1429H61.7143V13.7143Z" fill="black"/>
<path d="M61.7143 17.1429H58.2858V20.5714H61.7143V17.1429Z" fill="black"/>
<path d="M61.7143 24H58.2858V27.4286H61.7143V24Z" fill="black"/>
<path d="M61.7143 27.4286H58.2858V30.8571H61.7143V27.4286Z" fill="black"/>
<path d="M61.7143 30.8571H58.2858V34.2857H61.7143V30.8571Z" fill="black"/>
<path d="M61.7143 34.2857H58.2858V37.7143H61.7143V34.2857Z" fill="black"/>
<path d="M61.7143 41.1429H58.2858V44.5714H61.7143V41.1429Z" fill="black"/>
<path d="M61.7143 54.8571H58.2858V58.2857H61.7143V54.8571Z" fill="black"/>
<path d="M61.7143 58.2857H58.2858V61.7143H61.7143V58.2857Z" fill="black"/>
<path d="M61.7143 61.7143H58.2858V65.1429H61.7143V61.7143Z" fill="black"/>
<path d="M61.7143 65.1429H58.2858V68.5714H61.7143V65.1429Z" fill="black"/>
<path d="M61.7143 78.8571H58.2858V82.2857H61.7143V78.8571Z" fill="black"/>
<path d="M61.7143 82.2857H58.2858V85.7143H61.7143V82.2857Z" fill="black"/>
<path d="M61.7143 96H58.2858V99.4286H61.7143V96Z" fill="black"/>
<path d="M61.7143 102.857H58.2858V106.286H61.7143V102.857Z" fill="black"/>
<path d="M61.7143 106.286H58.2858V109.714H61.7143V106.286Z" fill="black"/>
<path d="M61.7143 113.143H58.2858V116.571H61.7143V113.143Z" fill="black"/>
<path d="M61.7143 120H58.2858V123.429H61.7143V120Z" fill="black"/>
<path d="M61.7143 130.286H58.2858V133.714H61.7143V130.286Z" fill="black"/>
<path d="M61.7143 137.143H58.2858V140.571H61.7143V137.143Z" fill="black"/>
<path d="M61.7143 144H58.2858V147.429H61.7143V144Z" fill="black"/>
<path d="M61.7143 150.857H58.2858V154.286H61.7143V150.857Z" fill="black"/>
<path d="M61.7143 164.571H58.2858V168H61.7143V164.571Z" fill="black"/>
<path d="M65.1428 20.5714H61.7142V24H65.1428V20.5714Z" fill="black"/>
<path d="M65.1428 27.4286H61.7142V30.8571H65.1428V27.4286Z" fill="black"/>
<path d="M65.1428 34.2857H61.7142V37.7143H65.1428V34.2857Z" fill="black"/>
<path d="M65.1428 37.7143H61.7142V41.1429H65.1428V37.7143Z" fill="black"/>
<path d="M65.1428 41.1429H61.7142V44.5714H65.1428V41.1429Z" fill="black"/>
<path d="M65.1428 44.5714H61.7142V48H65.1428V44.5714Z" fill="black"/>
<path d="M65.1428 58.2857H61.7142V61.7143H65.1428V58.2857Z" fill="black"/>
<path d="M65.1428 61.7143H61.7142V65.1429H65.1428V61.7143Z" fill="black"/>
<path d="M65.1428 68.5714H61.7142V72H65.1428V68.5714Z" fill="black"/>
<path d="M65.1428 75.4286H61.7142V78.8571H65.1428V75.4286Z" fill="black"/>
<path d="M65.1428 78.8571H61.7142V82.2857H65.1428V78.8571Z" fill="black"/>
<path d="M65.1428 96H61.7142V99.4286H65.1428V96Z" fill="black"/>
<path d="M65.1428 106.286H61.7142V109.714H65.1428V106.286Z" fill="black"/>
<path d="M65.1428 116.571H61.7142V120H65.1428V116.571Z" fill="black"/>
<path d="M65.1428 123.429H61.7142V126.857H65.1428V123.429Z" fill="black"/>
<path d="M65.1428 126.857H61.7142V130.286H65.1428V126.857Z" fill="black"/>
<path d="M65.1428 133.714H61.7142V137.143H65.1428V133.714Z" fill="black"/>
<path d="M65.1428 137.143H61.7142V140.571H65.1428V137.143Z" fill="black"/>
<path d="M65.1428 140.571H61.7142V144H65.1428V140.571Z" fill="black"/>
<path d="M65.1428 144H61.7142V147.429H65.1428V144Z" fill="black"/>
<path d="M65.1428 147.429H61.7142V150.857H65.1428V147.429Z" fill="black"/>
<path d="M65.1428 154.286H61.7142V157.714H65.1428V154.286Z" fill="black"/>
<path d="M65.1428 161.143H61.7142V164.571H65.1428V161.143Z" fill="black"/>
<path d="M65.1428 164.571H61.7142V168H65.1428V164.571Z" fill="black"/>
<path d="M68.5714 0H65.1428V3.42857H68.5714V0Z" fill="black"/>
<path d="M68.5714 10.2857H65.1428V13.7143H68.5714V10.2857Z" fill="black"/>
<path d="M68.5714 17.1429H65.1428V20.5714H68.5714V17.1429Z" fill="black"/>
<path d="M68.5714 41.1429H65.1428V44.5714H68.5714V41.1429Z" fill="black"/>
<path d="M68.5714 51.4286H65.1428V54.8572H68.5714V51.4286Z" fill="black"/>
<path d="M68.5714 54.8571H65.1428V58.2857H68.5714V54.8571Z" fill="black"/>
<path d="M68.5714 61.7143H65.1428V65.1429H68.5714V61.7143Z" fill="black"/>
<path d="M68.5714 65.1429H65.1428V68.5714H68.5714V65.1429Z" fill="black"/>
<path d="M68.5714 72H65.1428V75.4286H68.5714V72Z" fill="black"/>
<path d="M68.5714 75.4286H65.1428V78.8571H68.5714V75.4286Z" fill="black"/>
<path d="M68.5714 85.7143H65.1428V89.1429H68.5714V85.7143Z" fill="black"/>
<path d="M68.5714 89.1429H65.1428V92.5714H68.5714V89.1429Z" fill="black"/>
<path d="M68.5714 99.4286H65.1428V102.857H68.5714V99.4286Z" fill="black"/>
<path d="M68.5714 120H65.1428V123.429H68.5714V120Z" fill="black"/>
<path d="M68.5714 137.143H65.1428V140.571H68.5714V137.143Z" fill="black"/>
<path d="M68.5714 144H65.1428V147.429H68.5714V144Z" fill="black"/>
<path d="M68.5714 154.286H65.1428V157.714H68.5714V154.286Z" fill="black"/>
<path d="M68.5714 157.714H65.1428V161.143H68.5714V157.714Z" fill="black"/>
<path d="M68.5714 164.571H65.1428V168H68.5714V164.571Z" fill="black"/>
<path d="M72 3.42856H68.5714V6.85713H72V3.42856Z" fill="black"/>
<path d="M72 13.7143H68.5714V17.1429H72V13.7143Z" fill="black"/>
<path d="M72 20.5714H68.5714V24H72V20.5714Z" fill="black"/>
<path d="M72 24H68.5714V27.4286H72V24Z" fill="black"/>
<path d="M72 27.4286H68.5714V30.8571H72V27.4286Z" fill="black"/>
<path d="M72 30.8571H68.5714V34.2857H72V30.8571Z" fill="black"/>
<path d="M72 34.2857H68.5714V37.7143H72V34.2857Z" fill="black"/>
<path d="M72 48H68.5714V51.4286H72V48Z" fill="black"/>
<path d="M72 51.4286H68.5714V54.8572H72V51.4286Z" fill="black"/>
<path d="M72 54.8571H68.5714V58.2857H72V54.8571Z" fill="black"/>
<path d="M72 58.2857H68.5714V61.7143H72V58.2857Z" fill="black"/>
<path d="M72 75.4286H68.5714V78.8571H72V75.4286Z" fill="black"/>
<path d="M72 102.857H68.5714V106.286H72V102.857Z" fill="black"/>
<path d="M72 106.286H68.5714V109.714H72V106.286Z" fill="black"/>
<path d="M72 109.714H68.5714V113.143H72V109.714Z" fill="black"/>
<path d="M72 120H68.5714V123.429H72V120Z" fill="black"/>
<path d="M72 130.286H68.5714V133.714H72V130.286Z" fill="black"/>
<path d="M72 137.143H68.5714V140.571H72V137.143Z" fill="black"/>
<path d="M72 140.571H68.5714V144H72V140.571Z" fill="black"/>
<path d="M72 144H68.5714V147.429H72V144Z" fill="black"/>
<path d="M72 147.429H68.5714V150.857H72V147.429Z" fill="black"/>
<path d="M72 164.571H68.5714V168H72V164.571Z" fill="black"/>
<path d="M75.4286 0H72V3.42857H75.4286V0Z" fill="black"/>
<path d="M75.4286 10.2857H72V13.7143H75.4286V10.2857Z" fill="black"/>
<path d="M75.4286 24H72V27.4286H75.4286V24Z" fill="black"/>
<path d="M75.4286 27.4286H72V30.8571H75.4286V27.4286Z" fill="black"/>
<path d="M75.4286 30.8571H72V34.2857H75.4286V30.8571Z" fill="black"/>
<path d="M75.4286 48H72V51.4286H75.4286V48Z" fill="black"/>
<path d="M75.4286 54.8571H72V58.2857H75.4286V54.8571Z" fill="black"/>
<path d="M75.4286 61.7143H72V65.1429H75.4286V61.7143Z" fill="black"/>
<path d="M75.4286 78.8571H72V82.2857H75.4286V78.8571Z" fill="black"/>
<path d="M75.4286 85.7143H72V89.1429H75.4286V85.7143Z" fill="black"/>
<path d="M75.4286 99.4286H72V102.857H75.4286V99.4286Z" fill="black"/>
<path d="M75.4286 106.286H72V109.714H75.4286V106.286Z" fill="black"/>
<path d="M75.4286 109.714H72V113.143H75.4286V109.714Z" fill="black"/>
<path d="M75.4286 113.143H72V116.571H75.4286V113.143Z" fill="black"/>
<path d="M75.4286 120H72V123.429H75.4286V120Z" fill="black"/>
<path d="M75.4286 123.429H72V126.857H75.4286V123.429Z" fill="black"/>
<path d="M75.4286 130.286H72V133.714H75.4286V130.286Z" fill="black"/>
<path d="M75.4286 133.714H72V137.143H75.4286V133.714Z" fill="black"/>
<path d="M75.4286 140.571H72V144H75.4286V140.571Z" fill="black"/>
<path d="M75.4286 144H72V147.429H75.4286V144Z" fill="black"/>
<path d="M75.4286 147.429H72V150.857H75.4286V147.429Z" fill="black"/>
<path d="M75.4286 150.857H72V154.286H75.4286V150.857Z" fill="black"/>
<path d="M75.4286 157.714H72V161.143H75.4286V157.714Z" fill="black"/>
<path d="M75.4286 161.143H72V164.571H75.4286V161.143Z" fill="black"/>
<path d="M78.8572 6.85715H75.4286V10.2857H78.8572V6.85715Z" fill="black"/>
<path d="M78.8572 13.7143H75.4286V17.1429H78.8572V13.7143Z" fill="black"/>
<path d="M78.8572 17.1429H75.4286V20.5714H78.8572V17.1429Z" fill="black"/>
<path d="M78.8572 20.5714H75.4286V24H78.8572V20.5714Z" fill="black"/>
<path d="M78.8572 24H75.4286V27.4286H78.8572V24Z" fill="black"/>
<path d="M78.8572 27.4286H75.4286V30.8571H78.8572V27.4286Z" fill="black"/>
<path d="M78.8572 34.2857H75.4286V37.7143H78.8572V34.2857Z" fill="black"/>
<path d="M78.8572 44.5714H75.4286V48H78.8572V44.5714Z" fill="black"/>
<path d="M78.8572 48H75.4286V51.4286H78.8572V48Z" fill="black"/>
<path d="M78.8572 54.8571H75.4286V58.2857H78.8572V54.8571Z" fill="black"/>
<path d="M78.8572 58.2857H75.4286V61.7143H78.8572V58.2857Z" fill="black"/>
<path d="M78.8572 61.7143H75.4286V65.1429H78.8572V61.7143Z" fill="black"/>
<path d="M78.8572 65.1429H75.4286V68.5714H78.8572V65.1429Z" fill="black"/>
<path d="M78.8572 72H75.4286V75.4286H78.8572V72Z" fill="black"/>
<path d="M78.8572 75.4286H75.4286V78.8571H78.8572V75.4286Z" fill="black"/>
<path d="M78.8572 78.8571H75.4286V82.2857H78.8572V78.8571Z" fill="black"/>
<path d="M78.8572 82.2857H75.4286V85.7143H78.8572V82.2857Z" fill="black"/>
<path d="M78.8572 85.7143H75.4286V89.1429H78.8572V85.7143Z" fill="black"/>
<path d="M78.8572 89.1429H75.4286V92.5714H78.8572V89.1429Z" fill="black"/>
<path d="M78.8572 96H75.4286V99.4286H78.8572V96Z" fill="black"/>
<path d="M78.8572 106.286H75.4286V109.714H78.8572V106.286Z" fill="black"/>
<path d="M78.8572 130.286H75.4286V133.714H78.8572V130.286Z" fill="black"/>
<path d="M78.8572 137.143H75.4286V140.571H78.8572V137.143Z" fill="black"/>
<path d="M78.8572 140.571H75.4286V144H78.8572V140.571Z" fill="black"/>
<path d="M78.8572 144H75.4286V147.429H78.8572V144Z" fill="black"/>
<path d="M78.8572 147.429H75.4286V150.857H78.8572V147.429Z" fill="black"/>
<path d="M78.8572 150.857H75.4286V154.286H78.8572V150.857Z" fill="black"/>
<path d="M78.8572 154.286H75.4286V157.714H78.8572V154.286Z" fill="black"/>
<path d="M78.8572 157.714H75.4286V161.143H78.8572V157.714Z" fill="black"/>
<path d="M78.8572 161.143H75.4286V164.571H78.8572V161.143Z" fill="black"/>
<path d="M82.2858 0H78.8572V3.42857H82.2858V0Z" fill="black"/>
<path d="M82.2858 6.85715H78.8572V10.2857H82.2858V6.85715Z" fill="black"/>
<path d="M82.2858 10.2857H78.8572V13.7143H82.2858V10.2857Z" fill="black"/>
<path d="M82.2858 13.7143H78.8572V17.1429H82.2858V13.7143Z" fill="black"/>
<path d="M82.2858 27.4286H78.8572V30.8571H82.2858V27.4286Z" fill="black"/>
<path d="M82.2858 37.7143H78.8572V41.1429H82.2858V37.7143Z" fill="black"/>
<path d="M82.2858 41.1429H78.8572V44.5714H82.2858V41.1429Z" fill="black"/>
<path d="M82.2858 44.5714H78.8572V48H82.2858V44.5714Z" fill="black"/>
<path d="M82.2858 48H78.8572V51.4286H82.2858V48Z" fill="black"/>
<path d="M82.2858 51.4286H78.8572V54.8572H82.2858V51.4286Z" fill="black"/>
<path d="M82.2858 54.8571H78.8572V58.2857H82.2858V54.8571Z" fill="black"/>
<path d="M82.2858 65.1429H78.8572V68.5714H82.2858V65.1429Z" fill="black"/>
<path d="M82.2858 72H78.8572V75.4286H82.2858V72Z" fill="black"/>
<path d="M82.2858 75.4286H78.8572V78.8571H82.2858V75.4286Z" fill="black"/>
<path d="M82.2858 89.1429H78.8572V92.5714H82.2858V89.1429Z" fill="black"/>
<path d="M82.2858 92.5714H78.8572V96H82.2858V92.5714Z" fill="black"/>
<path d="M82.2858 96H78.8572V99.4286H82.2858V96Z" fill="black"/>
<path d="M82.2858 99.4286H78.8572V102.857H82.2858V99.4286Z" fill="black"/>
<path d="M82.2858 102.857H78.8572V106.286H82.2858V102.857Z" fill="black"/>
<path d="M82.2858 106.286H78.8572V109.714H82.2858V106.286Z" fill="black"/>
<path d="M82.2858 116.571H78.8572V120H82.2858V116.571Z" fill="black"/>
<path d="M82.2858 120H78.8572V123.429H82.2858V120Z" fill="black"/>
<path d="M82.2858 123.429H78.8572V126.857H82.2858V123.429Z" fill="black"/>
<path d="M82.2858 126.857H78.8572V130.286H82.2858V126.857Z" fill="black"/>
<path d="M82.2858 130.286H78.8572V133.714H82.2858V130.286Z" fill="black"/>
<path d="M82.2858 137.143H78.8572V140.571H82.2858V137.143Z" fill="black"/>
<path d="M82.2858 150.857H78.8572V154.286H82.2858V150.857Z" fill="black"/>
<path d="M82.2858 154.286H78.8572V157.714H82.2858V154.286Z" fill="black"/>
<path d="M82.2858 161.143H78.8572V164.571H82.2858V161.143Z" fill="black"/>
<path d="M85.7143 6.85715H82.2858V10.2857H85.7143V6.85715Z" fill="black"/>
<path d="M85.7143 10.2857H82.2858V13.7143H85.7143V10.2857Z" fill="black"/>
<path d="M85.7143 13.7143H82.2858V17.1429H85.7143V13.7143Z" fill="black"/>
<path d="M85.7143 20.5714H82.2858V24H85.7143V20.5714Z" fill="black"/>
<path d="M85.7143 27.4286H82.2858V30.8571H85.7143V27.4286Z" fill="black"/>
<path d="M85.7143 37.7143H82.2858V41.1429H85.7143V37.7143Z" fill="black"/>
<path d="M85.7143 48H82.2858V51.4286H85.7143V48Z" fill="black"/>
<path d="M85.7143 58.2857H82.2858V61.7143H85.7143V58.2857Z" fill="black"/>
<path d="M85.7143 61.7143H82.2858V65.1429H85.7143V61.7143Z" fill="black"/>
<path d="M85.7143 75.4286H82.2858V78.8571H85.7143V75.4286Z" fill="black"/>
<path d="M85.7143 82.2857H82.2858V85.7143H85.7143V82.2857Z" fill="black"/>
<path d="M85.7143 89.1429H82.2858V92.5714H85.7143V89.1429Z" fill="black"/>
<path d="M85.7143 92.5714H82.2858V96H85.7143V92.5714Z" fill="black"/>
<path d="M85.7143 102.857H82.2858V106.286H85.7143V102.857Z" fill="black"/>
<path d="M85.7143 109.714H82.2858V113.143H85.7143V109.714Z" fill="black"/>
<path d="M85.7143 123.429H82.2858V126.857H85.7143V123.429Z" fill="black"/>
<path d="M85.7143 126.857H82.2858V130.286H85.7143V126.857Z" fill="black"/>
<path d="M85.7143 130.286H82.2858V133.714H85.7143V130.286Z" fill="black"/>
<path d="M85.7143 133.714H82.2858V137.143H85.7143V133.714Z" fill="black"/>
<path d="M85.7143 137.143H82.2858V140.571H85.7143V137.143Z" fill="black"/>
<path d="M85.7143 144H82.2858V147.429H85.7143V144Z" fill="black"/>
<path d="M85.7143 150.857H82.2858V154.286H85.7143V150.857Z" fill="black"/>
<path d="M85.7143 157.714H82.2858V161.143H85.7143V157.714Z" fill="black"/>
<path d="M89.1428 0H85.7142V3.42857H89.1428V0Z" fill="black"/>
<path d="M89.1428 3.42856H85.7142V6.85713H89.1428V3.42856Z" fill="black"/>
<path d="M89.1428 6.85715H85.7142V10.2857H89.1428V6.85715Z" fill="black"/>
<path d="M89.1428 10.2857H85.7142V13.7143H89.1428V10.2857Z" fill="black"/>
<path d="M89.1428 13.7143H85.7142V17.1429H89.1428V13.7143Z" fill="black"/>
<path d="M89.1428 27.4286H85.7142V30.8571H89.1428V27.4286Z" fill="black"/>
<path d="M89.1428 37.7143H85.7142V41.1429H89.1428V37.7143Z" fill="black"/>
<path d="M89.1428 48H85.7142V51.4286H89.1428V48Z" fill="black"/>
<path d="M89.1428 51.4286H85.7142V54.8572H89.1428V51.4286Z" fill="black"/>
<path d="M89.1428 54.8571H85.7142V58.2857H89.1428V54.8571Z" fill="black"/>
<path d="M89.1428 58.2857H85.7142V61.7143H89.1428V58.2857Z" fill="black"/>
<path d="M89.1428 61.7143H85.7142V65.1429H89.1428V61.7143Z" fill="black"/>
<path d="M89.1428 75.4286H85.7142V78.8571H89.1428V75.4286Z" fill="black"/>
<path d="M89.1428 89.1429H85.7142V92.5714H89.1428V89.1429Z" fill="black"/>
<path d="M89.1428 133.714H85.7142V137.143H89.1428V133.714Z" fill="black"/>
<path d="M89.1428 137.143H85.7142V140.571H89.1428V137.143Z" fill="black"/>
<path d="M89.1428 150.857H85.7142V154.286H89.1428V150.857Z" fill="black"/>
<path d="M89.1428 157.714H85.7142V161.143H89.1428V157.714Z" fill="black"/>
<path d="M92.5714 3.42856H89.1428V6.85713H92.5714V3.42856Z" fill="black"/>
<path d="M92.5714 13.7143H89.1428V17.1429H92.5714V13.7143Z" fill="black"/>
<path d="M92.5714 17.1429H89.1428V20.5714H92.5714V17.1429Z" fill="black"/>
<path d="M92.5714 20.5714H89.1428V24H92.5714V20.5714Z" fill="black"/>
<path d="M92.5714 24H89.1428V27.4286H92.5714V24Z" fill="black"/>
<path d="M92.5714 27.4286H89.1428V30.8571H92.5714V27.4286Z" fill="black"/>
<path d="M92.5714 37.7143H89.1428V41.1429H92.5714V37.7143Z" fill="black"/>
<path d="M92.5714 48H89.1428V51.4286H92.5714V48Z" fill="black"/>
<path d="M92.5714 54.8571H89.1428V58.2857H92.5714V54.8571Z" fill="black"/>
<path d="M92.5714 65.1429H89.1428V68.5714H92.5714V65.1429Z" fill="black"/>
<path d="M92.5714 68.5714H89.1428V72H92.5714V68.5714Z" fill="black"/>
<path d="M92.5714 72H89.1428V75.4286H92.5714V72Z" fill="black"/>
<path d="M92.5714 75.4286H89.1428V78.8571H92.5714V75.4286Z" fill="black"/>
<path d="M92.5714 78.8571H89.1428V82.2857H92.5714V78.8571Z" fill="black"/>
<path d="M92.5714 82.2857H89.1428V85.7143H92.5714V82.2857Z" fill="black"/>
<path d="M92.5714 85.7143H89.1428V89.1429H92.5714V85.7143Z" fill="black"/>
<path d="M92.5714 89.1429H89.1428V92.5714H92.5714V89.1429Z" fill="black"/>
<path d="M92.5714 99.4286H89.1428V102.857H92.5714V99.4286Z" fill="black"/>
<path d="M92.5714 106.286H89.1428V109.714H92.5714V106.286Z" fill="black"/>
<path d="M92.5714 109.714H89.1428V113.143H92.5714V109.714Z" fill="black"/>
<path d="M92.5714 113.143H89.1428V116.571H92.5714V113.143Z" fill="black"/>
<path d="M92.5714 120H89.1428V123.429H92.5714V120Z" fill="black"/>
<path d="M92.5714 126.857H89.1428V130.286H92.5714V126.857Z" fill="black"/>
<path d="M92.5714 130.286H89.1428V133.714H92.5714V130.286Z" fill="black"/>
<path d="M92.5714 137.143H89.1428V140.571H92.5714V137.143Z" fill="black"/>
<path d="M92.5714 140.571H89.1428V144H92.5714V140.571Z" fill="black"/>
<path d="M92.5714 144H89.1428V147.429H92.5714V144Z" fill="black"/>
<path d="M92.5714 147.429H89.1428V150.857H92.5714V147.429Z" fill="black"/>
<path d="M92.5714 150.857H89.1428V154.286H92.5714V150.857Z" fill="black"/>
<path d="M92.5714 154.286H89.1428V157.714H92.5714V154.286Z" fill="black"/>
<path d="M92.5714 161.143H89.1428V164.571H92.5714V161.143Z" fill="black"/>
<path d="M92.5714 164.571H89.1428V168H92.5714V164.571Z" fill="black"/>
<path d="M96 3.42856H92.5714V6.85713H96V3.42856Z" fill="black"/>
<path d="M96 6.85715H92.5714V10.2857H96V6.85715Z" fill="black"/>
<path d="M96 10.2857H92.5714V13.7143H96V10.2857Z" fill="black"/>
<path d="M96 24H92.5714V27.4286H96V24Z" fill="black"/>
<path d="M96 27.4286H92.5714V30.8571H96V27.4286Z" fill="black"/>
<path d="M96 34.2857H92.5714V37.7143H96V34.2857Z" fill="black"/>
<path d="M96 41.1429H92.5714V44.5714H96V41.1429Z" fill="black"/>
<path d="M96 44.5714H92.5714V48H96V44.5714Z" fill="black"/>
<path d="M96 48H92.5714V51.4286H96V48Z" fill="black"/>
<path d="M96 72H92.5714V75.4286H96V72Z" fill="black"/>
<path d="M96 75.4286H92.5714V78.8571H96V75.4286Z" fill="black"/>
<path d="M96 78.8571H92.5714V82.2857H96V78.8571Z" fill="black"/>
<path d="M96 82.2857H92.5714V85.7143H96V82.2857Z" fill="black"/>
<path d="M96 85.7143H92.5714V89.1429H96V85.7143Z" fill="black"/>
<path d="M96 89.1429H92.5714V92.5714H96V89.1429Z" fill="black"/>
<path d="M96 92.5714H92.5714V96H96V92.5714Z" fill="black"/>
<path d="M96 99.4286H92.5714V102.857H96V99.4286Z" fill="black"/>
<path d="M96 102.857H92.5714V106.286H96V102.857Z" fill="black"/>
<path d="M96 133.714H92.5714V137.143H96V133.714Z" fill="black"/>
<path d="M96 137.143H92.5714V140.571H96V137.143Z" fill="black"/>
<path d="M96 144H92.5714V147.429H96V144Z" fill="black"/>
<path d="M96 147.429H92.5714V150.857H96V147.429Z" fill="black"/>
<path d="M96 154.286H92.5714V157.714H96V154.286Z" fill="black"/>
<path d="M99.4286 10.2857H96V13.7143H99.4286V10.2857Z" fill="black"/>
<path d="M99.4286 20.5714H96V24H99.4286V20.5714Z" fill="black"/>
<path d="M99.4286 30.8571H96V34.2857H99.4286V30.8571Z" fill="black"/>
<path d="M99.4286 37.7143H96V41.1429H99.4286V37.7143Z" fill="black"/>
<path d="M99.4286 44.5714H96V48H99.4286V44.5714Z" fill="black"/>
<path d="M99.4286 51.4286H96V54.8572H99.4286V51.4286Z" fill="black"/>
<path d="M99.4286 72H96V75.4286H99.4286V72Z" fill="black"/>
<path d="M99.4286 75.4286H96V78.8571H99.4286V75.4286Z" fill="black"/>
<path d="M99.4286 78.8571H96V82.2857H99.4286V78.8571Z" fill="black"/>
<path d="M99.4286 82.2857H96V85.7143H99.4286V82.2857Z" fill="black"/>
<path d="M99.4286 89.1429H96V92.5714H99.4286V89.1429Z" fill="black"/>
<path d="M99.4286 102.857H96V106.286H99.4286V102.857Z" fill="black"/>
<path d="M99.4286 116.571H96V120H99.4286V116.571Z" fill="black"/>
<path d="M99.4286 123.429H96V126.857H99.4286V123.429Z" fill="black"/>
<path d="M99.4286 126.857H96V130.286H99.4286V126.857Z" fill="black"/>
<path d="M99.4286 130.286H96V133.714H99.4286V130.286Z" fill="black"/>
<path d="M99.4286 140.571H96V144H99.4286V140.571Z" fill="black"/>
<path d="M99.4286 144H96V147.429H99.4286V144Z" fill="black"/>
<path d="M99.4286 147.429H96V150.857H99.4286V147.429Z" fill="black"/>
<path d="M99.4286 150.857H96V154.286H99.4286V150.857Z" fill="black"/>
<path d="M99.4286 157.714H96V161.143H99.4286V157.714Z" fill="black"/>
<path d="M99.4286 161.143H96V164.571H99.4286V161.143Z" fill="black"/>
<path d="M99.4286 164.571H96V168H99.4286V164.571Z" fill="black"/>
<path d="M102.857 6.85715H99.4286V10.2857H102.857V6.85715Z" fill="black"/>
<path d="M102.857 10.2857H99.4286V13.7143H102.857V10.2857Z" fill="black"/>
<path d="M102.857 37.7143H99.4286V41.1429H102.857V37.7143Z" fill="black"/>
<path d="M102.857 41.1429H99.4286V44.5714H102.857V41.1429Z" fill="black"/>
<path d="M102.857 48H99.4286V51.4286H102.857V48Z" fill="black"/>
<path d="M102.857 51.4286H99.4286V54.8572H102.857V51.4286Z" fill="black"/>
<path d="M102.857 54.8571H99.4286V58.2857H102.857V54.8571Z" fill="black"/>
<path d="M102.857 61.7143H99.4286V65.1429H102.857V61.7143Z" fill="black"/>
<path d="M102.857 68.5714H99.4286V72H102.857V68.5714Z" fill="black"/>
<path d="M102.857 75.4286H99.4286V78.8571H102.857V75.4286Z" fill="black"/>
<path d="M102.857 78.8571H99.4286V82.2857H102.857V78.8571Z" fill="black"/>
<path d="M102.857 82.2857H99.4286V85.7143H102.857V82.2857Z" fill="black"/>
<path d="M102.857 85.7143H99.4286V89.1429H102.857V85.7143Z" fill="black"/>
<path d="M102.857 89.1429H99.4286V92.5714H102.857V89.1429Z" fill="black"/>
<path d="M102.857 92.5714H99.4286V96H102.857V92.5714Z" fill="black"/>
<path d="M102.857 96H99.4286V99.4286H102.857V96Z" fill="black"/>
<path d="M102.857 99.4286H99.4286V102.857H102.857V99.4286Z" fill="black"/>
<path d="M102.857 120H99.4286V123.429H102.857V120Z" fill="black"/>
<path d="M102.857 123.429H99.4286V126.857H102.857V123.429Z" fill="black"/>
<path d="M102.857 140.571H99.4286V144H102.857V140.571Z" fill="black"/>
<path d="M102.857 147.429H99.4286V150.857H102.857V147.429Z" fill="black"/>
<path d="M102.857 154.286H99.4286V157.714H102.857V154.286Z" fill="black"/>
<path d="M106.286 0H102.857V3.42857H106.286V0Z" fill="black"/>
<path d="M106.286 3.42856H102.857V6.85713H106.286V3.42856Z" fill="black"/>
<path d="M106.286 6.85715H102.857V10.2857H106.286V6.85715Z" fill="black"/>
<path d="M106.286 13.7143H102.857V17.1429H106.286V13.7143Z" fill="black"/>
<path d="M106.286 17.1429H102.857V20.5714H106.286V17.1429Z" fill="black"/>
<path d="M106.286 20.5714H102.857V24H106.286V20.5714Z" fill="black"/>
<path d="M106.286 24H102.857V27.4286H106.286V24Z" fill="black"/>
<path d="M106.286 27.4286H102.857V30.8571H106.286V27.4286Z" fill="black"/>
<path d="M106.286 30.8571H102.857V34.2857H106.286V30.8571Z" fill="black"/>
<path d="M106.286 37.7143H102.857V41.1429H106.286V37.7143Z" fill="black"/>
<path d="M106.286 41.1429H102.857V44.5714H106.286V41.1429Z" fill="black"/>
<path d="M106.286 44.5714H102.857V48H106.286V44.5714Z" fill="black"/>
<path d="M106.286 61.7143H102.857V65.1429H106.286V61.7143Z" fill="black"/>
<path d="M106.286 72H102.857V75.4286H106.286V72Z" fill="black"/>
<path d="M106.286 82.2857H102.857V85.7143H106.286V82.2857Z" fill="black"/>
<path d="M106.286 85.7143H102.857V89.1429H106.286V85.7143Z" fill="black"/>
<path d="M106.286 89.1429H102.857V92.5714H106.286V89.1429Z" fill="black"/>
<path d="M106.286 92.5714H102.857V96H106.286V92.5714Z" fill="black"/>
<path d="M106.286 99.4286H102.857V102.857H106.286V99.4286Z" fill="black"/>
<path d="M106.286 106.286H102.857V109.714H106.286V106.286Z" fill="black"/>
<path d="M106.286 109.714H102.857V113.143H106.286V109.714Z" fill="black"/>
<path d="M106.286 113.143H102.857V116.571H106.286V113.143Z" fill="black"/>
<path d="M106.286 120H102.857V123.429H106.286V120Z" fill="black"/>
<path d="M106.286 123.429H102.857V126.857H106.286V123.429Z" fill="black"/>
<path d="M106.286 126.857H102.857V130.286H106.286V126.857Z" fill="black"/>
<path d="M106.286 133.714H102.857V137.143H106.286V133.714Z" fill="black"/>
<path d="M106.286 137.143H102.857V140.571H106.286V137.143Z" fill="black"/>
<path d="M106.286 140.571H102.857V144H106.286V140.571Z" fill="black"/>
<path d="M106.286 144H102.857V147.429H106.286V144Z" fill="black"/>
<path d="M106.286 154.286H102.857V157.714H106.286V154.286Z" fill="black"/>
<path d="M106.286 161.143H102.857V164.571H106.286V161.143Z" fill="black"/>
<path d="M106.286 164.571H102.857V168H106.286V164.571Z" fill="black"/>
<path d="M109.714 3.42856H106.286V6.85713H109.714V3.42856Z" fill="black"/>
<path d="M109.714 6.85715H106.286V10.2857H109.714V6.85715Z" fill="black"/>
<path d="M109.714 10.2857H106.286V13.7143H109.714V10.2857Z" fill="black"/>
<path d="M109.714 24H106.286V27.4286H109.714V24Z" fill="black"/>
<path d="M109.714 27.4286H106.286V30.8571H109.714V27.4286Z" fill="black"/>
<path d="M109.714 34.2857H106.286V37.7143H109.714V34.2857Z" fill="black"/>
<path d="M109.714 37.7143H106.286V41.1429H109.714V37.7143Z" fill="black"/>
<path d="M109.714 41.1429H106.286V44.5714H109.714V41.1429Z" fill="black"/>
<path d="M109.714 44.5714H106.286V48H109.714V44.5714Z" fill="black"/>
<path d="M109.714 48H106.286V51.4286H109.714V48Z" fill="black"/>
<path d="M109.714 51.4286H106.286V54.8572H109.714V51.4286Z" fill="black"/>
<path d="M109.714 61.7143H106.286V65.1429H109.714V61.7143Z" fill="black"/>
<path d="M109.714 68.5714H106.286V72H109.714V68.5714Z" fill="black"/>
<path d="M109.714 75.4286H106.286V78.8571H109.714V75.4286Z" fill="black"/>
<path d="M109.714 78.8571H106.286V82.2857H109.714V78.8571Z" fill="black"/>
<path d="M109.714 92.5714H106.286V96H109.714V92.5714Z" fill="black"/>
<path d="M109.714 96H106.286V99.4286H109.714V96Z" fill="black"/>
<path d="M109.714 99.4286H106.286V102.857H109.714V99.4286Z" fill="black"/>
<path d="M109.714 102.857H106.286V106.286H109.714V102.857Z" fill="black"/>
<path d="M109.714 106.286H106.286V109.714H109.714V106.286Z" fill="black"/>
<path d="M109.714 113.143H106.286V116.571H109.714V113.143Z" fill="black"/>
<path d="M109.714 120H106.286V123.429H109.714V120Z" fill="black"/>
<path d="M109.714 123.429H106.286V126.857H109.714V123.429Z" fill="black"/>
<path d="M109.714 126.857H106.286V130.286H109.714V126.857Z" fill="black"/>
<path d="M109.714 130.286H106.286V133.714H109.714V130.286Z" fill="black"/>
<path d="M109.714 133.714H106.286V137.143H109.714V133.714Z" fill="black"/>
<path d="M109.714 140.571H106.286V144H109.714V140.571Z" fill="black"/>
<path d="M109.714 144H106.286V147.429H109.714V144Z" fill="black"/>
<path d="M109.714 147.429H106.286V150.857H109.714V147.429Z" fill="black"/>
<path d="M109.714 154.286H106.286V157.714H109.714V154.286Z" fill="black"/>
<path d="M113.143 0H109.714V3.42857H113.143V0Z" fill="black"/>
<path d="M113.143 3.42856H109.714V6.85713H113.143V3.42856Z" fill="black"/>
<path d="M113.143 6.85715H109.714V10.2857H113.143V6.85715Z" fill="black"/>
<path d="M113.143 10.2857H109.714V13.7143H113.143V10.2857Z" fill="black"/>
<path d="M113.143 13.7143H109.714V17.1429H113.143V13.7143Z" fill="black"/>
<path d="M113.143 20.5714H109.714V24H113.143V20.5714Z" fill="black"/>
<path d="M113.143 24H109.714V27.4286H113.143V24Z" fill="black"/>
<path d="M113.143 34.2857H109.714V37.7143H113.143V34.2857Z" fill="black"/>
<path d="M113.143 37.7143H109.714V41.1429H113.143V37.7143Z" fill="black"/>
<path d="M113.143 41.1429H109.714V44.5714H113.143V41.1429Z" fill="black"/>
<path d="M113.143 44.5714H109.714V48H113.143V44.5714Z" fill="black"/>
<path d="M113.143 48H109.714V51.4286H113.143V48Z" fill="black"/>
<path d="M113.143 54.8571H109.714V58.2857H113.143V54.8571Z" fill="black"/>
<path d="M113.143 61.7143H109.714V65.1429H113.143V61.7143Z" fill="black"/>
<path d="M113.143 75.4286H109.714V78.8571H113.143V75.4286Z" fill="black"/>
<path d="M113.143 82.2857H109.714V85.7143H113.143V82.2857Z" fill="black"/>
<path d="M113.143 89.1429H109.714V92.5714H113.143V89.1429Z" fill="black"/>
<path d="M113.143 96H109.714V99.4286H113.143V96Z" fill="black"/>
<path d="M113.143 99.4286H109.714V102.857H113.143V99.4286Z" fill="black"/>
<path d="M113.143 102.857H109.714V106.286H113.143V102.857Z" fill="black"/>
<path d="M113.143 106.286H109.714V109.714H113.143V106.286Z" fill="black"/>
<path d="M113.143 113.143H109.714V116.571H113.143V113.143Z" fill="black"/>
<path d="M113.143 120H109.714V123.429H113.143V120Z" fill="black"/>
<path d="M113.143 123.429H109.714V126.857H113.143V123.429Z" fill="black"/>
<path d="M113.143 126.857H109.714V130.286H113.143V126.857Z" fill="black"/>
<path d="M113.143 130.286H109.714V133.714H113.143V130.286Z" fill="black"/>
<path d="M113.143 137.143H109.714V140.571H113.143V137.143Z" fill="black"/>
<path d="M113.143 144H109.714V147.429H113.143V144Z" fill="black"/>
<path d="M113.143 147.429H109.714V150.857H113.143V147.429Z" fill="black"/>
<path d="M113.143 154.286H109.714V157.714H113.143V154.286Z" fill="black"/>
<path d="M113.143 157.714H109.714V161.143H113.143V157.714Z" fill="black"/>
<path d="M113.143 164.571H109.714V168H113.143V164.571Z" fill="black"/>
<path d="M116.571 0H113.143V3.42857H116.571V0Z" fill="black"/>
<path d="M116.571 3.42856H113.143V6.85713H116.571V3.42856Z" fill="black"/>
<path d="M116.571 6.85715H113.143V10.2857H116.571V6.85715Z" fill="black"/>
<path d="M116.571 10.2857H113.143V13.7143H116.571V10.2857Z" fill="black"/>
<path d="M116.571 37.7143H113.143V41.1429H116.571V37.7143Z" fill="black"/>
<path d="M116.571 54.8571H113.143V58.2857H116.571V54.8571Z" fill="black"/>
<path d="M116.571 65.1429H113.143V68.5714H116.571V65.1429Z" fill="black"/>
<path d="M116.571 68.5714H113.143V72H116.571V68.5714Z" fill="black"/>
<path d="M116.571 72H113.143V75.4286H116.571V72Z" fill="black"/>
<path d="M116.571 75.4286H113.143V78.8571H116.571V75.4286Z" fill="black"/>
<path d="M116.571 78.8571H113.143V82.2857H116.571V78.8571Z" fill="black"/>
<path d="M116.571 92.5714H113.143V96H116.571V92.5714Z" fill="black"/>
<path d="M116.571 106.286H113.143V109.714H116.571V106.286Z" fill="black"/>
<path d="M116.571 133.714H113.143V137.143H116.571V133.714Z" fill="black"/>
<path d="M116.571 147.429H113.143V150.857H116.571V147.429Z" fill="black"/>
<path d="M116.571 150.857H113.143V154.286H116.571V150.857Z" fill="black"/>
<path d="M116.571 154.286H113.143V157.714H116.571V154.286Z" fill="black"/>
<path d="M120 0H116.571V3.42857H120V0Z" fill="black"/>
<path d="M120 3.42856H116.571V6.85713H120V3.42856Z" fill="black"/>
<path d="M120 6.85715H116.571V10.2857H120V6.85715Z" fill="black"/>
<path d="M120 10.2857H116.571V13.7143H120V10.2857Z" fill="black"/>
<path d="M120 17.1429H116.571V20.5714H120V17.1429Z" fill="black"/>
<path d="M120 20.5714H116.571V24H120V20.5714Z" fill="black"/>
<path d="M120 24H116.571V27.4286H120V24Z" fill="black"/>
<path d="M120 30.8571H116.571V34.2857H120V30.8571Z" fill="black"/>
<path d="M120 34.2857H116.571V37.7143H120V34.2857Z" fill="black"/>
<path d="M120 41.1429H116.571V44.5714H120V41.1429Z" fill="black"/>
<path d="M120 51.4286H116.571V54.8572H120V51.4286Z" fill="black"/>
<path d="M120 54.8571H116.571V58.2857H120V54.8571Z" fill="black"/>
<path d="M120 58.2857H116.571V61.7143H120V58.2857Z" fill="black"/>
<path d="M120 65.1429H116.571V68.5714H120V65.1429Z" fill="black"/>
<path d="M120 72H116.571V75.4286H120V72Z" fill="black"/>
<path d="M120 75.4286H116.571V78.8571H120V75.4286Z" fill="black"/>
<path d="M120 78.8571H116.571V82.2857H120V78.8571Z" fill="black"/>
<path d="M120 82.2857H116.571V85.7143H120V82.2857Z" fill="black"/>
<path d="M120 99.4286H116.571V102.857H120V99.4286Z" fill="black"/>
<path d="M120 106.286H116.571V109.714H120V106.286Z" fill="black"/>
<path d="M120 109.714H116.571V113.143H120V109.714Z" fill="black"/>
<path d="M120 113.143H116.571V116.571H120V113.143Z" fill="black"/>
<path d="M120 116.571H116.571V120H120V116.571Z" fill="black"/>
<path d="M120 120H116.571V123.429H120V120Z" fill="black"/>
<path d="M120 133.714H116.571V137.143H120V133.714Z" fill="black"/>
<path d="M120 137.143H116.571V140.571H120V137.143Z" fill="black"/>
<path d="M120 140.571H116.571V144H120V140.571Z" fill="black"/>
<path d="M120 147.429H116.571V150.857H120V147.429Z" fill="black"/>
<path d="M120 154.286H116.571V157.714H120V154.286Z" fill="black"/>
<path d="M120 157.714H116.571V161.143H120V157.714Z" fill="black"/>
<path d="M120 164.571H116.571V168H120V164.571Z" fill="black"/>
<path d="M123.429 13.7143H120V17.1429H123.429V13.7143Z" fill="black"/>
<path d="M123.429 17.1429H120V20.5714H123.429V17.1429Z" fill="black"/>
<path d="M123.429 24H120V27.4286H123.429V24Z" fill="black"/>
<path d="M123.429 30.8571H120V34.2857H123.429V30.8571Z" fill="black"/>
<path d="M123.429 41.1429H120V44.5714H123.429V41.1429Z" fill="black"/>
<path d="M123.429 44.5714H120V48H123.429V44.5714Z" fill="black"/>
<path d="M123.429 48H120V51.4286H123.429V48Z" fill="black"/>
<path d="M123.429 58.2857H120V61.7143H123.429V58.2857Z" fill="black"/>
<path d="M123.429 68.5714H120V72H123.429V68.5714Z" fill="black"/>
<path d="M123.429 82.2857H120V85.7143H123.429V82.2857Z" fill="black"/>
<path d="M123.429 85.7143H120V89.1429H123.429V85.7143Z" fill="black"/>
<path d="M123.429 92.5714H120V96H123.429V92.5714Z" fill="black"/>
<path d="M123.429 102.857H120V106.286H123.429V102.857Z" fill="black"/>
<path d="M123.429 106.286H120V109.714H123.429V106.286Z" fill="black"/>
<path d="M123.429 113.143H120V116.571H123.429V113.143Z" fill="black"/>
<path d="M123.429 116.571H120V120H123.429V116.571Z" fill="black"/>
<path d="M123.429 120H120V123.429H123.429V120Z" fill="black"/>
<path d="M123.429 126.857H120V130.286H123.429V126.857Z" fill="black"/>
<path d="M123.429 130.286H120V133.714H123.429V130.286Z" fill="black"/>
<path d="M123.429 144H120V147.429H123.429V144Z" fill="black"/>
<path d="M123.429 150.857H120V154.286H123.429V150.857Z" fill="black"/>
<path d="M123.429 154.286H120V157.714H123.429V154.286Z" fill="black"/>
<path d="M123.429 157.714H120V161.143H123.429V157.714Z" fill="black"/>
<path d="M123.429 164.571H120V168H123.429V164.571Z" fill="black"/>
<path d="M126.857 0H123.429V3.42857H126.857V0Z" fill="black"/>
<path d="M126.857 3.42856H123.429V6.85713H126.857V3.42856Z" fill="black"/>
<path d="M126.857 10.2857H123.429V13.7143H126.857V10.2857Z" fill="black"/>
<path d="M126.857 17.1429H123.429V20.5714H126.857V17.1429Z" fill="black"/>
<path d="M126.857 20.5714H123.429V24H126.857V20.5714Z" fill="black"/>
<path d="M126.857 27.4286H123.429V30.8571H126.857V27.4286Z" fill="black"/>
<path d="M126.857 30.8571H123.429V34.2857H126.857V30.8571Z" fill="black"/>
<path d="M126.857 41.1429H123.429V44.5714H126.857V41.1429Z" fill="black"/>
<path d="M126.857 44.5714H123.429V48H126.857V44.5714Z" fill="black"/>
<path d="M126.857 54.8571H123.429V58.2857H126.857V54.8571Z" fill="black"/>
<path d="M126.857 65.1429H123.429V68.5714H126.857V65.1429Z" fill="black"/>
<path d="M126.857 68.5714H123.429V72H126.857V68.5714Z" fill="black"/>
<path d="M126.857 75.4286H123.429V78.8571H126.857V75.4286Z" fill="black"/>
<path d="M126.857 82.2857H123.429V85.7143H126.857V82.2857Z" fill="black"/>
<path d="M126.857 85.7143H123.429V89.1429H126.857V85.7143Z" fill="black"/>
<path d="M126.857 89.1429H123.429V92.5714H126.857V89.1429Z" fill="black"/>
<path d="M126.857 96H123.429V99.4286H126.857V96Z" fill="black"/>
<path d="M126.857 99.4286H123.429V102.857H126.857V99.4286Z" fill="black"/>
<path d="M126.857 102.857H123.429V106.286H126.857V102.857Z" fill="black"/>
<path d="M126.857 109.714H123.429V113.143H126.857V109.714Z" fill="black"/>
<path d="M126.857 116.571H123.429V120H126.857V116.571Z" fill="black"/>
<path d="M126.857 123.429H123.429V126.857H126.857V123.429Z" fill="black"/>
<path d="M126.857 126.857H123.429V130.286H126.857V126.857Z" fill="black"/>
<path d="M126.857 130.286H123.429V133.714H126.857V130.286Z" fill="black"/>
<path d="M126.857 137.143H123.429V140.571H126.857V137.143Z" fill="black"/>
<path d="M126.857 140.571H123.429V144H126.857V140.571Z" fill="black"/>
<path d="M126.857 144H123.429V147.429H126.857V144Z" fill="black"/>
<path d="M126.857 147.429H123.429V150.857H126.857V147.429Z" fill="black"/>
<path d="M126.857 150.857H123.429V154.286H126.857V150.857Z" fill="black"/>
<path d="M126.857 154.286H123.429V157.714H126.857V154.286Z" fill="black"/>
<path d="M126.857 157.714H123.429V161.143H126.857V157.714Z" fill="black"/>
<path d="M126.857 164.571H123.429V168H126.857V164.571Z" fill="black"/>
<path d="M130.286 0H126.857V3.42857H130.286V0Z" fill="black"/>
<path d="M130.286 6.85715H126.857V10.2857H130.286V6.85715Z" fill="black"/>
<path d="M130.286 13.7143H126.857V17.1429H130.286V13.7143Z" fill="black"/>
<path d="M130.286 17.1429H126.857V20.5714H130.286V17.1429Z" fill="black"/>
<path d="M130.286 27.4286H126.857V30.8571H130.286V27.4286Z" fill="black"/>
<path d="M130.286 30.8571H126.857V34.2857H130.286V30.8571Z" fill="black"/>
<path d="M130.286 37.7143H126.857V41.1429H130.286V37.7143Z" fill="black"/>
<path d="M130.286 41.1429H126.857V44.5714H130.286V41.1429Z" fill="black"/>
<path d="M130.286 54.8571H126.857V58.2857H130.286V54.8571Z" fill="black"/>
<path d="M130.286 58.2857H126.857V61.7143H130.286V58.2857Z" fill="black"/>
<path d="M130.286 82.2857H126.857V85.7143H130.286V82.2857Z" fill="black"/>
<path d="M130.286 85.7143H126.857V89.1429H130.286V85.7143Z" fill="black"/>
<path d="M130.286 96H126.857V99.4286H130.286V96Z" fill="black"/>
<path d="M130.286 99.4286H126.857V102.857H130.286V99.4286Z" fill="black"/>
<path d="M130.286 106.286H126.857V109.714H130.286V106.286Z" fill="black"/>
<path d="M130.286 109.714H126.857V113.143H130.286V109.714Z" fill="black"/>
<path d="M130.286 113.143H126.857V116.571H130.286V113.143Z" fill="black"/>
<path d="M130.286 140.571H126.857V144H130.286V140.571Z" fill="black"/>
<path d="M130.286 144H126.857V147.429H130.286V144Z" fill="black"/>
<path d="M130.286 154.286H126.857V157.714H130.286V154.286Z" fill="black"/>
<path d="M130.286 157.714H126.857V161.143H130.286V157.714Z" fill="black"/>
<path d="M130.286 161.143H126.857V164.571H130.286V161.143Z" fill="black"/>
<path d="M130.286 164.571H126.857V168H130.286V164.571Z" fill="black"/>
<path d="M133.714 3.42856H130.286V6.85713H133.714V3.42856Z" fill="black"/>
<path d="M133.714 17.1429H130.286V20.5714H133.714V17.1429Z" fill="black"/>
<path d="M133.714 20.5714H130.286V24H133.714V20.5714Z" fill="black"/>
<path d="M133.714 24H130.286V27.4286H133.714V24Z" fill="black"/>
<path d="M133.714 27.4286H130.286V30.8571H133.714V27.4286Z" fill="black"/>
<path d="M133.714 30.8571H130.286V34.2857H133.714V30.8571Z" fill="black"/>
<path d="M133.714 44.5714H130.286V48H133.714V44.5714Z" fill="black"/>
<path d="M133.714 48H130.286V51.4286H133.714V48Z" fill="black"/>
<path d="M133.714 51.4286H130.286V54.8572H133.714V51.4286Z" fill="black"/>
<path d="M133.714 68.5714H130.286V72H133.714V68.5714Z" fill="black"/>
<path d="M133.714 72H130.286V75.4286H133.714V72Z" fill="black"/>
<path d="M133.714 82.2857H130.286V85.7143H133.714V82.2857Z" fill="black"/>
<path d="M133.714 85.7143H130.286V89.1429H133.714V85.7143Z" fill="black"/>
<path d="M133.714 89.1429H130.286V92.5714H133.714V89.1429Z" fill="black"/>
<path d="M133.714 92.5714H130.286V96H133.714V92.5714Z" fill="black"/>
<path d="M133.714 102.857H130.286V106.286H133.714V102.857Z" fill="black"/>
<path d="M133.714 106.286H130.286V109.714H133.714V106.286Z" fill="black"/>
<path d="M133.714 109.714H130.286V113.143H133.714V109.714Z" fill="black"/>
<path d="M133.714 113.143H130.286V116.571H133.714V113.143Z" fill="black"/>
<path d="M133.714 126.857H130.286V130.286H133.714V126.857Z" fill="black"/>
<path d="M133.714 130.286H130.286V133.714H133.714V130.286Z" fill="black"/>
<path d="M133.714 133.714H130.286V137.143H133.714V133.714Z" fill="black"/>
<path d="M133.714 150.857H130.286V154.286H133.714V150.857Z" fill="black"/>
<path d="M133.714 154.286H130.286V157.714H133.714V154.286Z" fill="black"/>
<path d="M137.143 3.42856H133.714V6.85713H137.143V3.42856Z" fill="black"/>
<path d="M137.143 6.85715H133.714V10.2857H137.143V6.85715Z" fill="black"/>
<path d="M137.143 10.2857H133.714V13.7143H137.143V10.2857Z" fill="black"/>
<path d="M137.143 24H133.714V27.4286H137.143V24Z" fill="black"/>
<path d="M137.143 34.2857H133.714V37.7143H137.143V34.2857Z" fill="black"/>
<path d="M137.143 41.1429H133.714V44.5714H137.143V41.1429Z" fill="black"/>
<path d="M137.143 48H133.714V51.4286H137.143V48Z" fill="black"/>
<path d="M137.143 54.8571H133.714V58.2857H137.143V54.8571Z" fill="black"/>
<path d="M137.143 58.2857H133.714V61.7143H137.143V58.2857Z" fill="black"/>
<path d="M137.143 61.7143H133.714V65.1429H137.143V61.7143Z" fill="black"/>
<path d="M137.143 65.1429H133.714V68.5714H137.143V65.1429Z" fill="black"/>
<path d="M137.143 68.5714H133.714V72H137.143V68.5714Z" fill="black"/>
<path d="M137.143 75.4286H133.714V78.8571H137.143V75.4286Z" fill="black"/>
<path d="M137.143 89.1429H133.714V92.5714H137.143V89.1429Z" fill="black"/>
<path d="M137.143 92.5714H133.714V96H137.143V92.5714Z" fill="black"/>
<path d="M137.143 96H133.714V99.4286H137.143V96Z" fill="black"/>
<path d="M137.143 99.4286H133.714V102.857H137.143V99.4286Z" fill="black"/>
<path d="M137.143 102.857H133.714V106.286H137.143V102.857Z" fill="black"/>
<path d="M137.143 106.286H133.714V109.714H137.143V106.286Z" fill="black"/>
<path d="M137.143 109.714H133.714V113.143H137.143V109.714Z" fill="black"/>
<path d="M137.143 120H133.714V123.429H137.143V120Z" fill="black"/>
<path d="M137.143 123.429H133.714V126.857H137.143V123.429Z" fill="black"/>
<path d="M137.143 130.286H133.714V133.714H137.143V130.286Z" fill="black"/>
<path d="M137.143 133.714H133.714V137.143H137.143V133.714Z" fill="black"/>
<path d="M137.143 137.143H133.714V140.571H137.143V137.143Z" fill="black"/>
<path d="M137.143 140.571H133.714V144H137.143V140.571Z" fill="black"/>
<path d="M137.143 150.857H133.714V154.286H137.143V150.857Z" fill="black"/>
<path d="M137.143 157.714H133.714V161.143H137.143V157.714Z" fill="black"/>
<path d="M137.143 164.571H133.714V168H137.143V164.571Z" fill="black"/>
<path d="M140.571 0H137.143V3.42857H140.571V0Z" fill="black"/>
<path d="M140.571 3.42856H137.143V6.85713H140.571V3.42856Z" fill="black"/>
<path d="M140.571 6.85715H137.143V10.2857H140.571V6.85715Z" fill="black"/>
<path d="M140.571 20.5714H137.143V24H140.571V20.5714Z" fill="black"/>
<path d="M140.571 30.8571H137.143V34.2857H140.571V30.8571Z" fill="black"/>
<path d="M140.571 37.7143H137.143V41.1429H140.571V37.7143Z" fill="black"/>
<path d="M140.571 54.8571H137.143V58.2857H140.571V54.8571Z" fill="black"/>
<path d="M140.571 58.2857H137.143V61.7143H140.571V58.2857Z" fill="black"/>
<path d="M140.571 72H137.143V75.4286H140.571V72Z" fill="black"/>
<path d="M140.571 75.4286H137.143V78.8571H140.571V75.4286Z" fill="black"/>
<path d="M140.571 78.8571H137.143V82.2857H140.571V78.8571Z" fill="black"/>
<path d="M140.571 82.2857H137.143V85.7143H140.571V82.2857Z" fill="black"/>
<path d="M140.571 85.7143H137.143V89.1429H140.571V85.7143Z" fill="black"/>
<path d="M140.571 89.1429H137.143V92.5714H140.571V89.1429Z" fill="black"/>
<path d="M140.571 92.5714H137.143V96H140.571V92.5714Z" fill="black"/>
<path d="M140.571 99.4286H137.143V102.857H140.571V99.4286Z" fill="black"/>
<path d="M140.571 113.143H137.143V116.571H140.571V113.143Z" fill="black"/>
<path d="M140.571 116.571H137.143V120H140.571V116.571Z" fill="black"/>
<path d="M140.571 120H137.143V123.429H140.571V120Z" fill="black"/>
<path d="M140.571 123.429H137.143V126.857H140.571V123.429Z" fill="black"/>
<path d="M140.571 133.714H137.143V137.143H140.571V133.714Z" fill="black"/>
<path d="M140.571 137.143H137.143V140.571H140.571V137.143Z" fill="black"/>
<path d="M140.571 140.571H137.143V144H140.571V140.571Z" fill="black"/>
<path d="M140.571 144H137.143V147.429H140.571V144Z" fill="black"/>
<path d="M140.571 147.429H137.143V150.857H140.571V147.429Z" fill="black"/>
<path d="M140.571 150.857H137.143V154.286H140.571V150.857Z" fill="black"/>
<path d="M140.571 164.571H137.143V168H140.571V164.571Z" fill="black"/>
<path d="M144 27.4286H140.571V30.8571H144V27.4286Z" fill="black"/>
<path d="M144 37.7143H140.571V41.1429H144V37.7143Z" fill="black"/>
<path d="M144 41.1429H140.571V44.5714H144V41.1429Z" fill="black"/>
<path d="M144 48H140.571V51.4286H144V48Z" fill="black"/>
<path d="M144 51.4286H140.571V54.8572H144V51.4286Z" fill="black"/>
<path d="M144 61.7143H140.571V65.1429H144V61.7143Z" fill="black"/>
<path d="M144 72H140.571V75.4286H144V72Z" fill="black"/>
<path d="M144 75.4286H140.571V78.8571H144V75.4286Z" fill="black"/>
<path d="M144 89.1429H140.571V92.5714H144V89.1429Z" fill="black"/>
<path d="M144 92.5714H140.571V96H144V92.5714Z" fill="black"/>
<path d="M144 96H140.571V99.4286H144V96Z" fill="black"/>
<path d="M144 102.857H140.571V106.286H144V102.857Z" fill="black"/>
<path d="M144 106.286H140.571V109.714H144V106.286Z" fill="black"/>
<path d="M144 109.714H140.571V113.143H144V109.714Z" fill="black"/>
<path d="M144 116.571H140.571V120H144V116.571Z" fill="black"/>
<path d="M144 123.429H140.571V126.857H144V123.429Z" fill="black"/>
<path d="M144 133.714H140.571V137.143H144V133.714Z" fill="black"/>
<path d="M144 137.143H140.571V140.571H144V137.143Z" fill="black"/>
<path d="M144 150.857H140.571V154.286H144V150.857Z" fill="black"/>
<path d="M144 161.143H140.571V164.571H144V161.143Z" fill="black"/>
<path d="M147.429 0H144V3.42857H147.429V0Z" fill="black"/>
<path d="M147.429 3.42856H144V6.85713H147.429V3.42856Z" fill="black"/>
<path d="M147.429 6.85715H144V10.2857H147.429V6.85715Z" fill="black"/>
<path d="M147.429 10.2857H144V13.7143H147.429V10.2857Z" fill="black"/>
<path d="M147.429 13.7143H144V17.1429H147.429V13.7143Z" fill="black"/>
<path d="M147.429 17.1429H144V20.5714H147.429V17.1429Z" fill="black"/>
<path d="M147.429 20.5714H144V24H147.429V20.5714Z" fill="black"/>
<path d="M147.429 27.4286H144V30.8571H147.429V27.4286Z" fill="black"/>
<path d="M147.429 30.8571H144V34.2857H147.429V30.8571Z" fill="black"/>
<path d="M147.429 37.7143H144V41.1429H147.429V37.7143Z" fill="black"/>
<path d="M147.429 41.1429H144V44.5714H147.429V41.1429Z" fill="black"/>
<path d="M147.429 44.5714H144V48H147.429V44.5714Z" fill="black"/>
<path d="M147.429 51.4286H144V54.8572H147.429V51.4286Z" fill="black"/>
<path d="M147.429 54.8571H144V58.2857H147.429V54.8571Z" fill="black"/>
<path d="M147.429 58.2857H144V61.7143H147.429V58.2857Z" fill="black"/>
<path d="M147.429 61.7143H144V65.1429H147.429V61.7143Z" fill="black"/>
<path d="M147.429 65.1429H144V68.5714H147.429V65.1429Z" fill="black"/>
<path d="M147.429 68.5714H144V72H147.429V68.5714Z" fill="black"/>
<path d="M147.429 72H144V75.4286H147.429V72Z" fill="black"/>
<path d="M147.429 75.4286H144V78.8571H147.429V75.4286Z" fill="black"/>
<path d="M147.429 82.2857H144V85.7143H147.429V82.2857Z" fill="black"/>
<path d="M147.429 89.1429H144V92.5714H147.429V89.1429Z" fill="black"/>
<path d="M147.429 96H144V99.4286H147.429V96Z" fill="black"/>
<path d="M147.429 99.4286H144V102.857H147.429V99.4286Z" fill="black"/>
<path d="M147.429 102.857H144V106.286H147.429V102.857Z" fill="black"/>
<path d="M147.429 109.714H144V113.143H147.429V109.714Z" fill="black"/>
<path d="M147.429 113.143H144V116.571H147.429V113.143Z" fill="black"/>
<path d="M147.429 116.571H144V120H147.429V116.571Z" fill="black"/>
<path d="M147.429 123.429H144V126.857H147.429V123.429Z" fill="black"/>
<path d="M147.429 126.857H144V130.286H147.429V126.857Z" fill="black"/>
<path d="M147.429 130.286H144V133.714H147.429V130.286Z" fill="black"/>
<path d="M147.429 137.143H144V140.571H147.429V137.143Z" fill="black"/>
<path d="M147.429 144H144V147.429H147.429V144Z" fill="black"/>
<path d="M147.429 150.857H144V154.286H147.429V150.857Z" fill="black"/>
<path d="M147.429 154.286H144V157.714H147.429V154.286Z" fill="black"/>
<path d="M147.429 157.714H144V161.143H147.429V157.714Z" fill="black"/>
<path d="M147.429 161.143H144V164.571H147.429V161.143Z" fill="black"/>
<path d="M150.857 0H147.429V3.42857H150.857V0Z" fill="black"/>
<path d="M150.857 20.5714H147.429V24H150.857V20.5714Z" fill="black"/>
<path d="M150.857 30.8571H147.429V34.2857H150.857V30.8571Z" fill="black"/>
<path d="M150.857 34.2857H147.429V37.7143H150.857V34.2857Z" fill="black"/>
<path d="M150.857 48H147.429V51.4286H150.857V48Z" fill="black"/>
<path d="M150.857 51.4286H147.429V54.8572H150.857V51.4286Z" fill="black"/>
<path d="M150.857 75.4286H147.429V78.8571H150.857V75.4286Z" fill="black"/>
<path d="M150.857 89.1429H147.429V92.5714H150.857V89.1429Z" fill="black"/>
<path d="M150.857 92.5714H147.429V96H150.857V92.5714Z" fill="black"/>
<path d="M150.857 96H147.429V99.4286H150.857V96Z" fill="black"/>
<path d="M150.857 99.4286H147.429V102.857H150.857V99.4286Z" fill="black"/>
<path d="M150.857 102.857H147.429V106.286H150.857V102.857Z" fill="black"/>
<path d="M150.857 106.286H147.429V109.714H150.857V106.286Z" fill="black"/>
<path d="M150.857 126.857H147.429V130.286H150.857V126.857Z" fill="black"/>
<path d="M150.857 133.714H147.429V137.143H150.857V133.714Z" fill="black"/>
<path d="M150.857 137.143H147.429V140.571H150.857V137.143Z" fill="black"/>
<path d="M150.857 150.857H147.429V154.286H150.857V150.857Z" fill="black"/>
<path d="M150.857 154.286H147.429V157.714H150.857V154.286Z" fill="black"/>
<path d="M150.857 157.714H147.429V161.143H150.857V157.714Z" fill="black"/>
<path d="M150.857 161.143H147.429V164.571H150.857V161.143Z" fill="black"/>
<path d="M154.286 0H150.857V3.42857H154.286V0Z" fill="black"/>
<path d="M154.286 6.85715H150.857V10.2857H154.286V6.85715Z" fill="black"/>
<path d="M154.286 10.2857H150.857V13.7143H154.286V10.2857Z" fill="black"/>
<path d="M154.286 13.7143H150.857V17.1429H154.286V13.7143Z" fill="black"/>
<path d="M154.286 20.5714H150.857V24H154.286V20.5714Z" fill="black"/>
<path d="M154.286 27.4286H150.857V30.8571H154.286V27.4286Z" fill="black"/>
<path d="M154.286 30.8571H150.857V34.2857H154.286V30.8571Z" fill="black"/>
<path d="M154.286 41.1429H150.857V44.5714H154.286V41.1429Z" fill="black"/>
<path d="M154.286 44.5714H150.857V48H154.286V44.5714Z" fill="black"/>
<path d="M154.286 54.8571H150.857V58.2857H154.286V54.8571Z" fill="black"/>
<path d="M154.286 61.7143H150.857V65.1429H154.286V61.7143Z" fill="black"/>
<path d="M154.286 72H150.857V75.4286H154.286V72Z" fill="black"/>
<path d="M154.286 75.4286H150.857V78.8571H154.286V75.4286Z" fill="black"/>
<path d="M154.286 78.8571H150.857V82.2857H154.286V78.8571Z" fill="black"/>
<path d="M154.286 82.2857H150.857V85.7143H154.286V82.2857Z" fill="black"/>
<path d="M154.286 85.7143H150.857V89.1429H154.286V85.7143Z" fill="black"/>
<path d="M154.286 89.1429H150.857V92.5714H154.286V89.1429Z" fill="black"/>
<path d="M154.286 92.5714H150.857V96H154.286V92.5714Z" fill="black"/>
<path d="M154.286 96H150.857V99.4286H154.286V96Z" fill="black"/>
<path d="M154.286 106.286H150.857V109.714H154.286V106.286Z" fill="black"/>
<path d="M154.286 109.714H150.857V113.143H154.286V109.714Z" fill="black"/>
<path d="M154.286 113.143H150.857V116.571H154.286V113.143Z" fill="black"/>
<path d="M154.286 116.571H150.857V120H154.286V116.571Z" fill="black"/>
<path d="M154.286 126.857H150.857V130.286H154.286V126.857Z" fill="black"/>
<path d="M154.286 133.714H150.857V137.143H154.286V133.714Z" fill="black"/>
<path d="M154.286 137.143H150.857V140.571H154.286V137.143Z" fill="black"/>
<path d="M154.286 140.571H150.857V144H154.286V140.571Z" fill="black"/>
<path d="M154.286 144H150.857V147.429H154.286V144Z" fill="black"/>
<path d="M154.286 147.429H150.857V150.857H154.286V147.429Z" fill="black"/>
<path d="M154.286 150.857H150.857V154.286H154.286V150.857Z" fill="black"/>
<path d="M154.286 154.286H150.857V157.714H154.286V154.286Z" fill="black"/>
<path d="M154.286 157.714H150.857V161.143H154.286V157.714Z" fill="black"/>
<path d="M154.286 164.571H150.857V168H154.286V164.571Z" fill="black"/>
<path d="M157.714 0H154.286V3.42857H157.714V0Z" fill="black"/>
<path d="M157.714 6.85715H154.286V10.2857H157.714V6.85715Z" fill="black"/>
<path d="M157.714 10.2857H154.286V13.7143H157.714V10.2857Z" fill="black"/>
<path d="M157.714 13.7143H154.286V17.1429H157.714V13.7143Z" fill="black"/>
<path d="M157.714 20.5714H154.286V24H157.714V20.5714Z" fill="black"/>
<path d="M157.714 27.4286H154.286V30.8571H157.714V27.4286Z" fill="black"/>
<path d="M157.714 34.2857H154.286V37.7143H157.714V34.2857Z" fill="black"/>
<path d="M157.714 48H154.286V51.4286H157.714V48Z" fill="black"/>
<path d="M157.714 61.7143H154.286V65.1429H157.714V61.7143Z" fill="black"/>
<path d="M157.714 65.1429H154.286V68.5714H157.714V65.1429Z" fill="black"/>
<path d="M157.714 72H154.286V75.4286H157.714V72Z" fill="black"/>
<path d="M157.714 78.8571H154.286V82.2857H157.714V78.8571Z" fill="black"/>
<path d="M157.714 82.2857H154.286V85.7143H157.714V82.2857Z" fill="black"/>
<path d="M157.714 85.7143H154.286V89.1429H157.714V85.7143Z" fill="black"/>
<path d="M157.714 102.857H154.286V106.286H157.714V102.857Z" fill="black"/>
<path d="M157.714 106.286H154.286V109.714H157.714V106.286Z" fill="black"/>
<path d="M157.714 109.714H154.286V113.143H157.714V109.714Z" fill="black"/>
<path d="M157.714 116.571H154.286V120H157.714V116.571Z" fill="black"/>
<path d="M157.714 126.857H154.286V130.286H157.714V126.857Z" fill="black"/>
<path d="M157.714 133.714H154.286V137.143H157.714V133.714Z" fill="black"/>
<path d="M157.714 140.571H154.286V144H157.714V140.571Z" fill="black"/>
<path d="M157.714 144H154.286V147.429H157.714V144Z" fill="black"/>
<path d="M157.714 147.429H154.286V150.857H157.714V147.429Z" fill="black"/>
<path d="M157.714 157.714H154.286V161.143H157.714V157.714Z" fill="black"/>
<path d="M157.714 161.143H154.286V164.571H157.714V161.143Z" fill="black"/>
<path d="M157.714 164.571H154.286V168H157.714V164.571Z" fill="black"/>
<path d="M161.143 0H157.714V3.42857H161.143V0Z" fill="black"/>
<path d="M161.143 6.85715H157.714V10.2857H161.143V6.85715Z" fill="black"/>
<path d="M161.143 10.2857H157.714V13.7143H161.143V10.2857Z" fill="black"/>
<path d="M161.143 13.7143H157.714V17.1429H161.143V13.7143Z" fill="black"/>
<path d="M161.143 20.5714H157.714V24H161.143V20.5714Z" fill="black"/>
<path d="M161.143 30.8571H157.714V34.2857H161.143V30.8571Z" fill="black"/>
<path d="M161.143 37.7143H157.714V41.1429H161.143V37.7143Z" fill="black"/>
<path d="M161.143 51.4286H157.714V54.8572H161.143V51.4286Z" fill="black"/>
<path d="M161.143 54.8571H157.714V58.2857H161.143V54.8571Z" fill="black"/>
<path d="M161.143 61.7143H157.714V65.1429H161.143V61.7143Z" fill="black"/>
<path d="M161.143 75.4286H157.714V78.8571H161.143V75.4286Z" fill="black"/>
<path d="M161.143 78.8571H157.714V82.2857H161.143V78.8571Z" fill="black"/>
<path d="M161.143 82.2857H157.714V85.7143H161.143V82.2857Z" fill="black"/>
<path d="M161.143 89.1429H157.714V92.5714H161.143V89.1429Z" fill="black"/>
<path d="M161.143 92.5714H157.714V96H161.143V92.5714Z" fill="black"/>
<path d="M161.143 96H157.714V99.4286H161.143V96Z" fill="black"/>
<path d="M161.143 99.4286H157.714V102.857H161.143V99.4286Z" fill="black"/>
<path d="M161.143 102.857H157.714V106.286H161.143V102.857Z" fill="black"/>
<path d="M161.143 113.143H157.714V116.571H161.143V113.143Z" fill="black"/>
<path d="M161.143 120H157.714V123.429H161.143V120Z" fill="black"/>
<path d="M161.143 126.857H157.714V130.286H161.143V126.857Z" fill="black"/>
<path d="M161.143 130.286H157.714V133.714H161.143V130.286Z" fill="black"/>
<path d="M161.143 133.714H157.714V137.143H161.143V133.714Z" fill="black"/>
<path d="M161.143 140.571H157.714V144H161.143V140.571Z" fill="black"/>
<path d="M161.143 144H157.714V147.429H161.143V144Z" fill="black"/>
<path d="M161.143 154.286H157.714V157.714H161.143V154.286Z" fill="black"/>
<path d="M161.143 157.714H157.714V161.143H161.143V157.714Z" fill="black"/>
<path d="M161.143 161.143H157.714V164.571H161.143V161.143Z" fill="black"/>
<path d="M161.143 164.571H157.714V168H161.143V164.571Z" fill="black"/>
<path d="M164.571 0H161.143V3.42857H164.571V0Z" fill="black"/>
<path d="M164.571 20.5714H161.143V24H164.571V20.5714Z" fill="black"/>
<path d="M164.571 27.4286H161.143V30.8571H164.571V27.4286Z" fill="black"/>
<path d="M164.571 30.8571H161.143V34.2857H164.571V30.8571Z" fill="black"/>
<path d="M164.571 41.1429H161.143V44.5714H164.571V41.1429Z" fill="black"/>
<path d="M164.571 44.5714H161.143V48H164.571V44.5714Z" fill="black"/>
<path d="M164.571 54.8571H161.143V58.2857H164.571V54.8571Z" fill="black"/>
<path d="M164.571 58.2857H161.143V61.7143H164.571V58.2857Z" fill="black"/>
<path d="M164.571 61.7143H161.143V65.1429H164.571V61.7143Z" fill="black"/>
<path d="M164.571 65.1429H161.143V68.5714H164.571V65.1429Z" fill="black"/>
<path d="M164.571 68.5714H161.143V72H164.571V68.5714Z" fill="black"/>
<path d="M164.571 78.8571H161.143V82.2857H164.571V78.8571Z" fill="black"/>
<path d="M164.571 82.2857H161.143V85.7143H164.571V82.2857Z" fill="black"/>
<path d="M164.571 85.7143H161.143V89.1429H164.571V85.7143Z" fill="black"/>
<path d="M164.571 89.1429H161.143V92.5714H164.571V89.1429Z" fill="black"/>
<path d="M164.571 92.5714H161.143V96H164.571V92.5714Z" fill="black"/>
<path d="M164.571 102.857H161.143V106.286H164.571V102.857Z" fill="black"/>
<path d="M164.571 113.143H161.143V116.571H164.571V113.143Z" fill="black"/>
<path d="M164.571 120H161.143V123.429H164.571V120Z" fill="black"/>
<path d="M164.571 126.857H161.143V130.286H164.571V126.857Z" fill="black"/>
<path d="M164.571 161.143H161.143V164.571H164.571V161.143Z" fill="black"/>
<path d="M168 0H164.571V3.42857H168V0Z" fill="black"/>
<path d="M168 3.42856H164.571V6.85713H168V3.42856Z" fill="black"/>
<path d="M168 6.85715H164.571V10.2857H168V6.85715Z" fill="black"/>
<path d="M168 10.2857H164.571V13.7143H168V10.2857Z" fill="black"/>
<path d="M168 13.7143H164.571V17.1429H168V13.7143Z" fill="black"/>
<path d="M168 17.1429H164.571V20.5714H168V17.1429Z" fill="black"/>
<path d="M168 20.5714H164.571V24H168V20.5714Z" fill="black"/>
<path d="M168 34.2857H164.571V37.7143H168V34.2857Z" fill="black"/>
<path d="M168 37.7143H164.571V41.1429H168V37.7143Z" fill="black"/>
<path d="M168 48H164.571V51.4286H168V48Z" fill="black"/>
<path d="M168 51.4286H164.571V54.8572H168V51.4286Z" fill="black"/>
<path d="M168 61.7143H164.571V65.1429H168V61.7143Z" fill="black"/>
<path d="M168 65.1429H164.571V68.5714H168V65.1429Z" fill="black"/>
<path d="M168 68.5714H164.571V72H168V68.5714Z" fill="black"/>
<path d="M168 75.4286H164.571V78.8571H168V75.4286Z" fill="black"/>
<path d="M168 78.8571H164.571V82.2857H168V78.8571Z" fill="black"/>
<path d="M168 89.1429H164.571V92.5714H168V89.1429Z" fill="black"/>
<path d="M168 92.5714H164.571V96H168V92.5714Z" fill="black"/>
<path d="M168 96H164.571V99.4286H168V96Z" fill="black"/>
<path d="M168 102.857H164.571V106.286H168V102.857Z" fill="black"/>
<path d="M168 106.286H164.571V109.714H168V106.286Z" fill="black"/>
<path d="M168 109.714H164.571V113.143H168V109.714Z" fill="black"/>
<path d="M168 116.571H164.571V120H168V116.571Z" fill="black"/>
<path d="M168 120H164.571V123.429H168V120Z" fill="black"/>
<path d="M168 123.429H164.571V126.857H168V123.429Z" fill="black"/>
<path d="M168 130.286H164.571V133.714H168V130.286Z" fill="black"/>
<path d="M168 133.714H164.571V137.143H168V133.714Z" fill="black"/>
<path d="M168 144H164.571V147.429H168V144Z" fill="black"/>
<path d="M168 150.857H164.571V154.286H168V150.857Z" fill="black"/>
<path d="M168 157.714H164.571V161.143H168V157.714Z" fill="black"/>
<path d="M168 161.143H164.571V164.571H168V161.143Z" fill="black"/>
<path d="M168 164.571H164.571V168H168V164.571Z" fill="black"/>
</svg>
